<svg xmlns="http://www.w3.org/2000/svg" viewBox="0 0 468.43 455.27"><defs><style>.cls-1{fill:#f5f5f5;}.cls-2{fill:#e0e0e0;}.cls-3{fill:#ebebeb;}.cls-4{fill:#fafafa;}.cls-5{opacity:0.2;}.cls-6{fill:#fff;}.cls-7{fill:#6f4439;}.cls-8{fill:#ae7461;}.cls-9{opacity:0.3;}.cls-10{fill:#263238;}.cls-11{fill:#455a64;}.cls-12{fill:#ff725e;}</style></defs><g id="Layer_2" data-name="Layer 2"><g id="Background_Complete" data-name="Background Complete"><path class="cls-1" d="M301,228.31l-118.46-1.1L146.61,227l-9.77,0-2.53,0a5.73,5.73,0,0,0-.87,0,8.17,8.17,0,0,0,.87.05l2.53.06,9.76.12,35.9.19,118.46.07c46.24,0,88.1.06,118.41.28,15.16.1,27.42.24,35.9.4,4.24.08,7.53.16,9.76.25a18.07,18.07,0,0,1,3.4.25,18.72,18.72,0,0,1-3.4.21c-2.24.07-5.53.12-9.77.15-8.47.08-20.74.1-35.89.05C389.06,229.14,347.19,228.78,301,228.31Z"/><path class="cls-1" d="M300,238.46l-116.84-19-35.44-5.58-9.64-1.45-2.51-.35a5.08,5.08,0,0,0-.87-.08,6.85,6.85,0,0,0,.85.18l2.5.45,9.62,1.59,35.43,5.61,117,18c45.67,7,87,13.35,116.93,18.14,14.95,2.39,27.05,4.38,35.39,5.82,4.18.72,7.41,1.3,9.6,1.72a18.29,18.29,0,0,1,3.32.77,17.87,17.87,0,0,1-3.39-.3c-2.22-.27-5.48-.72-9.67-1.32-8.39-1.21-20.51-3-35.47-5.37C386.93,252.59,345.63,245.9,300,238.46Z"/><path class="cls-1" d="M297.49,248.34l-112.3-36.65L151.1,200.75l-9.29-2.9-2.42-.73a7.55,7.55,0,0,0-.84-.22,4,4,0,0,0,.8.32l2.4.82,9.24,3.05,34.08,11,112.64,35.64c44,13.87,83.78,26.5,112.53,35.81,14.38,4.65,26,8.47,34,11.17,4,1.35,7.11,2.42,9.2,3.17a17.63,17.63,0,0,1,3.16,1.26,17.55,17.55,0,0,1-3.31-.81c-2.14-.61-5.29-1.55-9.33-2.78-8.09-2.48-19.76-6.14-34.16-10.73C381,275.59,341.31,262.67,297.49,248.34Z"/><path class="cls-1" d="M293.38,257.69l-105-53.35-31.9-16-8.7-4.29-2.28-1.09a4.56,4.56,0,0,0-.79-.34,5.83,5.83,0,0,0,.74.43l2.24,1.18,8.63,4.42,31.88,16L293.7,257.09c41.18,20.43,78.44,39,105.33,52.58,13.45,6.79,24.3,12.34,31.78,16.23,3.73,1.94,6.62,3.47,8.57,4.54a18.06,18.06,0,0,1,2.91,1.72,16.56,16.56,0,0,1-3.13-1.31c-2-.93-5-2.34-8.77-4.18-7.58-3.68-18.51-9.08-32-15.82C371.45,297.37,334.33,278.55,293.38,257.69Z"/><path class="cls-1" d="M287.81,266.31l-95.1-68.65L163.78,177l-7.9-5.57L153.8,170a8.39,8.39,0,0,0-.72-.46,3.66,3.66,0,0,0,.66.54l2,1.5,7.81,5.68L192.48,198l95.74,67.8c37.39,26.44,71.21,50.43,95.58,67.94,12.19,8.75,22,15.88,28.78,20.85,3.38,2.49,6,4.44,7.74,5.79a17.21,17.21,0,0,1,2.6,2.15,18.72,18.72,0,0,1-2.89-1.77c-1.84-1.23-4.54-3.07-8-5.46-6.89-4.79-16.82-11.79-29.05-20.49C358.54,317.36,324.9,293.13,287.81,266.31Z"/><path class="cls-1" d="M280.92,274l-83-82.18L172.7,167l-6.92-6.69L164,158.59a4.62,4.62,0,0,0-.65-.56,6.19,6.19,0,0,0,.58.63c.41.43,1,1,1.75,1.79l6.81,6.79,25.25,24.81,83.72,81.45c32.7,31.76,62.27,60.57,83.54,81.55,10.64,10.49,19.21,19,25.09,25,2.94,3,5.21,5.28,6.72,6.88A18,18,0,0,1,399,389.4a16.74,16.74,0,0,1-2.57-2.18c-1.63-1.49-4-3.72-7-6.6-6.05-5.77-14.74-14.19-25.43-24.64C342.62,335.1,313.28,306.07,280.92,274Z"/><path class="cls-1" d="M272.9,280.5c-26.87-36.59-51.18-69.72-68.8-93.72l-21-28.31-5.76-7.65-1.53-2a6.24,6.24,0,0,0-.54-.66,4.17,4.17,0,0,0,.46.72l1.44,2,5.65,7.74,21,28.31,69.67,93.12c27.22,36.32,51.81,69.25,69.47,93.19,8.83,12,15.93,21.69,20.79,28.44,2.43,3.38,4.3,6,5.54,7.82a16.87,16.87,0,0,1,1.79,2.82,17.22,17.22,0,0,1-2.19-2.55c-1.36-1.71-3.34-4.27-5.87-7.58-5.05-6.61-12.29-16.24-21.17-28.17C324.06,350.21,299.72,317.11,272.9,280.5Z"/><path class="cls-1" d="M263.92,285.74l-52.86-103c-6.83-13.13-12.35-23.76-16.18-31.14l-4.47-8.44L189.23,141a6.77,6.77,0,0,0-.44-.73,4.73,4.73,0,0,0,.34.78l1.1,2.22,4.33,8.5,16.15,31.16,53.84,102.55c21,40,40,76.27,53.63,102.61,6.8,13.16,12.25,23.84,16,31.25,1.85,3.7,3.27,6.59,4.21,8.56a16.68,16.68,0,0,1,1.31,3.06,17.77,17.77,0,0,1-1.75-2.85c-1.07-1.9-2.62-4.73-4.58-8.38-3.93-7.3-9.52-17.91-16.38-31C303.24,362.37,284.53,326,263.92,285.74Z"/><path class="cls-1" d="M254.21,289.54,218.69,179.71c-4.62-14-8.35-25.35-10.94-33.23l-3.05-9c-.35-1-.62-1.78-.82-2.34a4.7,4.7,0,0,0-.31-.78,4.26,4.26,0,0,0,.21.81c.17.57.41,1.35.73,2.37l2.89,9.06c2.59,7.88,6.31,19.22,10.91,33.24l36.57,109.5c14.31,42.73,27.2,81.45,36.36,109.53,4.58,14,8.23,25.42,10.7,33.3,1.23,3.94,2.16,7,2.77,9.1a17.36,17.36,0,0,1,.8,3.22,16.3,16.3,0,0,1-1.27-3.07c-.75-2.05-1.82-5.07-3.17-9-2.69-7.81-6.5-19.14-11.15-33.16C280.64,371.23,268.05,332.42,254.21,289.54Z"/><path class="cls-1" d="M244,291.81c-6.76-44.47-12.88-84.72-17.31-113.9-2.29-14.54-4.14-26.31-5.42-34.48l-1.55-9.37c-.18-1.05-.33-1.85-.43-2.43a4.77,4.77,0,0,0-.18-.83,4.74,4.74,0,0,0,.08.84c.08.58.19,1.4.33,2.45.32,2.18.79,5.33,1.39,9.39,1.28,8.17,3.12,20,5.4,34.49,4.71,29.13,11.2,69.33,18.38,113.74s13.67,84.59,18.17,113.72c2.25,14.56,4,26.36,5.17,34.52.58,4.08,1,7.26,1.27,9.41a17,17,0,0,1,.27,3.31,17.22,17.22,0,0,1-.75-3.24c-.42-2.13-1-5.28-1.68-9.35-1.4-8.12-3.33-19.89-5.64-34.45C256.88,376.52,250.73,336.27,244,291.81Z"/><path class="cls-1" d="M233.56,292.5c.42-45,.79-85.64,1.07-115.13.06-14.71.11-26.62.15-34.88,0-4.1,0-7.29,0-9.49,0-1.06,0-1.88,0-2.47a4.22,4.22,0,0,0-.05-.84,7.91,7.91,0,0,0,0,.84c0,.59,0,1.41-.06,2.47,0,2.2-.07,5.39-.12,9.48,0,8.27-.1,20.18-.17,34.89V292.5c0,44.94,0,85.63-.21,115.09-.1,14.73-.24,26.65-.39,34.88-.08,4.12-.17,7.32-.25,9.49a16.51,16.51,0,0,1-.26,3.31,17.2,17.2,0,0,1-.22-3.31c-.07-2.17-.12-5.37-.16-9.49-.08-8.24-.11-20.16-.07-34.89C232.77,378.12,233.11,337.43,233.56,292.5Z"/><path class="cls-1" d="M223.12,291.61c7.6-44.34,14.48-84.48,19.47-113.56,2.41-14.53,4.37-26.28,5.72-34.45.65-4,1.14-7.2,1.49-9.37.15-1,.27-1.86.36-2.45a4.73,4.73,0,0,0,.08-.83,4.56,4.56,0,0,0-.19.82q-.17.85-.45,2.43L248,143.55c-1.36,8.16-3.33,19.92-5.75,34.44-4.71,29.13-11.21,69.32-18.4,113.73s-13.68,84.59-18.59,113.66c-2.46,14.53-4.5,26.28-6,34.4-.74,4.05-1.34,7.2-1.77,9.33a17.34,17.34,0,0,1-.78,3.23A16,16,0,0,1,197,449c.28-2.15.74-5.32,1.36-9.39,1.23-8.15,3.11-19.93,5.5-34.48C208.64,376.07,215.49,335.93,223.12,291.61Z"/><path class="cls-1" d="M213,289.14,250.59,180c4.73-14,8.57-25.29,11.23-33.14,1.29-3.9,2.29-6.94,3-9,.32-1,.57-1.8.74-2.36a3.77,3.77,0,0,0,.22-.82,5.72,5.72,0,0,0-.32.79l-.84,2.32-3.13,9c-2.67,7.85-6.52,19.16-11.26,33.13-9.38,28-22.31,66.74-36.6,109.5s-27.21,81.44-36.77,109.39c-4.78,14-8.7,25.27-11.47,33.06-1.39,3.89-2.49,6.91-3.26,8.94a16.46,16.46,0,0,1-1.3,3.07,17.18,17.18,0,0,1,.83-3.22c.63-2.08,1.59-5.14,2.86-9.07,2.54-7.86,6.3-19.21,11-33.2C185,370.33,198.23,331.74,213,289.14Z"/><path class="cls-1" d="M203.33,285.15l54.83-102c6.94-13.08,12.55-23.66,16.46-31,1.9-3.65,3.38-6.5,4.41-8.46.48-.95.85-1.69,1.12-2.21s.36-.77.35-.77a4.08,4.08,0,0,0-.45.72c-.28.51-.68,1.23-1.21,2.17l-4.54,8.39-16.48,31L203.94,285.46c-21,40-40.06,76.26-54,102.41-7,13.07-12.68,23.62-16.68,30.89-2,3.63-3.57,6.44-4.66,8.34a16.51,16.51,0,0,1-1.78,2.83,17.19,17.19,0,0,1,1.35-3.05c1-2,2.4-4.83,4.29-8.52,3.79-7.37,9.34-18,16.27-31.1C162.54,361.05,181.89,325,203.33,285.15Z"/><path class="cls-1" d="M194.46,279.74C222,243.63,247,211,265,187.27c9-11.86,16.21-21.45,21.24-28.12l5.72-7.69,1.46-2a4.18,4.18,0,0,0,.47-.71,6.22,6.22,0,0,0-.55.64l-1.54,2L286,159l-21.27,28.1L195,280.15c-27.18,36.35-51.84,69.23-69.84,92.93-9,11.85-16.33,21.41-21.44,28-2.56,3.29-4.57,5.82-5.95,7.53a16.94,16.94,0,0,1-2.21,2.52,17,17,0,0,1,1.82-2.8c1.26-1.79,3.15-4.41,5.61-7.77,4.92-6.7,12.12-16.36,21.07-28.25C142,348.52,166.88,315.81,194.46,279.74Z"/><path class="cls-1" d="M186.56,273.06l84.52-80.68,25.48-24.57,6.88-6.73,1.77-1.77a6.19,6.19,0,0,0,.58-.63,4.62,4.62,0,0,0-.65.56l-1.84,1.7-7,6.63-25.5,24.55-83.75,81.42c-32.67,31.8-62.29,60.56-83.87,81.25-10.78,10.34-19.55,18.68-25.66,24.39-3,2.86-5.43,5.07-7.07,6.54a16.94,16.94,0,0,1-2.59,2.16,17,17,0,0,1,2.25-2.49c1.53-1.58,3.82-3.88,6.78-6.82,5.94-5.89,14.59-14.34,25.33-24.73C123.71,333.06,153.56,304.52,186.56,273.06Z"/><path class="cls-1" d="M179.84,265.26l96.39-66.92,29.11-20.42,7.87-5.6,2-1.49a3.36,3.36,0,0,0,.67-.53,7.17,7.17,0,0,0-.73.45l-2.08,1.4-8,5.49L276,198l-95.76,67.77C142.89,292.29,109,316.22,84.4,333.39c-12.31,8.59-22.3,15.5-29.25,20.23-3.47,2.36-6.18,4.17-8,5.38a18.6,18.6,0,0,1-2.9,1.75,17.68,17.68,0,0,1,2.62-2.13c1.77-1.33,4.39-3.25,7.8-5.71,6.8-4.92,16.7-12,29-20.59C108.15,315,142.2,291.35,179.84,265.26Z"/><path class="cls-1" d="M174.45,256.54l106-51.44,32-15.75,8.68-4.34,2.24-1.16a7.18,7.18,0,0,0,.75-.42,4.12,4.12,0,0,0-.8.33L321,184.83,312.3,189l-32.05,15.72L174.76,257.15c-41.15,20.48-78.45,39-105.53,52.19C55.69,316,44.7,321.26,37.08,324.87c-3.81,1.8-6.78,3.18-8.8,4.09a16.58,16.58,0,0,1-3.15,1.28,18.63,18.63,0,0,1,2.93-1.7c2-1,4.86-2.55,8.61-4.46,7.52-3.82,18.43-9.26,31.94-15.93C95.63,294.8,133.07,276.59,174.45,256.54Z"/><path class="cls-1" d="M170.53,247.11l113-34.6,34.19-10.65,9.27-3,2.4-.79a5,5,0,0,0,.81-.31,4.35,4.35,0,0,0-.84.21l-2.43.7-9.32,2.82L283.4,212.15,170.74,247.76C126.79,261.69,87,274.24,58.07,283.16c-14.44,4.46-26.15,8-34.26,10.42-4,1.2-7.21,2.11-9.35,2.7a17.9,17.9,0,0,1-3.32.78,17.43,17.43,0,0,1,3.17-1.23c2.1-.74,5.21-1.78,9.23-3.09,8-2.62,19.69-6.34,34.11-10.86C86.5,272.84,126.42,260.58,170.53,247.11Z"/><path class="cls-1" d="M168.19,237.19,285.37,220.3,320.85,215l9.64-1.51,2.5-.42a4.48,4.48,0,0,0,.84-.18,5.08,5.08,0,0,0-.86.08l-2.51.32-9.66,1.36-35.49,5.27-117,17.93c-45.66,7-87,13.34-117,17.73-15,2.2-27.12,3.92-35.52,5-4.2.57-7.47,1-9.68,1.24a17.32,17.32,0,0,1-3.4.26A18.08,18.08,0,0,1,6,261.41c2.2-.4,5.44-1,9.62-1.63,8.36-1.37,20.47-3.25,35.45-5.51C81,249.75,122.45,243.75,168.19,237.19Z"/><path class="cls-1" d="M167.47,227l118.46,1,35.9.13,9.76,0,2.54,0A5.65,5.65,0,0,0,335,228a4.35,4.35,0,0,0-.86,0l-2.54-.06-9.76-.11-35.9-.14-118.46.07c-46.23.06-88.1.05-118.41-.13-15.16-.09-27.42-.22-35.9-.37-4.24-.07-7.53-.15-9.76-.23a18.07,18.07,0,0,1-3.4-.25,19.15,19.15,0,0,1,3.4-.22c2.24-.06,5.53-.12,9.77-.16,8.47-.08,20.74-.12,35.89-.09C79.37,226.32,121.24,226.63,167.47,227Z"/><path class="cls-1" d="M168.38,216.89l116.86,18.85,35.45,5.54,9.64,1.44,2.52.34a6.07,6.07,0,0,0,.86.09,5.23,5.23,0,0,0-.85-.19l-2.49-.44-9.63-1.58-35.44-5.57-117-17.81c-45.68-6.91-87-13.24-117-18-15-2.37-27.06-4.35-35.41-5.78-4.17-.71-7.41-1.29-9.6-1.71A18.5,18.5,0,0,1,3,191.31a18,18,0,0,1,3.4.3c2.21.27,5.47.71,9.67,1.31,8.39,1.19,20.51,3,35.47,5.33C81.47,202.87,122.78,209.5,168.38,216.89Z"/><path class="cls-1" d="M170.91,207l112.35,36.5,34.1,10.9,9.3,2.9,2.43.72a4.39,4.39,0,0,0,.83.21,5.93,5.93,0,0,0-.8-.31l-2.4-.82-9.24-3-34.1-10.92L170.69,207.66c-44-13.82-83.81-26.4-112.58-35.67-14.38-4.64-26-8.44-34-11.13-4-1.34-7.11-2.41-9.2-3.16a17.63,17.63,0,0,1-3.16-1.26,17.55,17.55,0,0,1,3.31.81c2.14.6,5.29,1.54,9.34,2.77,8.09,2.46,19.76,6.11,34.17,10.69C87.36,179.86,127.08,192.73,170.91,207Z"/><path class="cls-1" d="M175,197.65l105,53.22,31.92,16,8.71,4.28,2.28,1.09a5.89,5.89,0,0,0,.79.34,4.49,4.49,0,0,0-.75-.43L320.77,271l-8.64-4.41-31.9-16L174.69,198.25C133.49,177.87,96.2,159.36,69.3,145.8,55.84,139,45,133.49,37.5,129.61c-3.74-1.94-6.64-3.47-8.58-4.53A18.56,18.56,0,0,1,26,123.36a18.71,18.71,0,0,1,3.14,1.3c2,.93,5,2.34,8.77,4.17,7.59,3.68,18.53,9.07,32,15.79C96.89,158.06,134,176.84,175,197.65Z"/><path class="cls-1" d="M180.57,189l95.19,68.53,28.95,20.63,7.92,5.56,2.07,1.42a4.7,4.7,0,0,0,.73.45,6.45,6.45,0,0,0-.66-.54l-2-1.49-7.83-5.67L276,257.26l-95.83-67.69c-37.42-26.39-71.27-50.34-95.67-67.82-12.2-8.73-22-15.85-28.8-20.82-3.38-2.48-6-4.43-7.75-5.77A17.21,17.21,0,0,1,45.34,93a17.73,17.73,0,0,1,2.89,1.77c1.84,1.22,4.54,3.06,8,5.45C63.13,105,73.06,112,85.3,120.68,109.78,138.06,143.44,162.25,180.57,189Z"/><path class="cls-1" d="M187.45,181.35l83.06,82.08,25.3,24.76,6.93,6.68,1.82,1.72a4.62,4.62,0,0,0,.65.56,4.94,4.94,0,0,0-.58-.63c-.41-.43-1-1-1.75-1.79L296.06,288l-25.28-24.77c-21.47-20.84-51.09-49.59-83.83-81.35s-62.34-60.5-83.65-81.46c-10.65-10.47-19.23-19-25.12-24.92-2.94-3-5.21-5.28-6.73-6.87a16.46,16.46,0,0,1-2.22-2.52,18.88,18.88,0,0,1,2.57,2.19c1.62,1.48,4,3.71,7,6.59C84.88,80.6,93.57,89,104.27,99.44,125.67,120.3,155.05,149.29,187.45,181.35Z"/><path class="cls-1" d="M195.46,174.81l68.92,93.64c8.87,11.93,16,21.58,21,28.28l5.77,7.65,1.53,2a4.75,4.75,0,0,0,.55.65,5.2,5.2,0,0,0-.47-.71l-1.44-2-5.65-7.73-21-28.29-69.79-93C167.63,138.92,143,106,125.3,82.1c-8.85-12-16-21.67-20.82-28.42-2.44-3.37-4.31-6-5.55-7.81a17.37,17.37,0,0,1-1.8-2.81,16.7,16.7,0,0,1,2.19,2.54c1.37,1.71,3.35,4.27,5.88,7.57,5.06,6.61,12.31,16.23,21.21,28.15C144.21,105.16,168.6,138.24,195.46,174.81Z"/><path class="cls-1" d="M204.43,169.56c20.7,40.21,39.43,76.59,53,103l16.22,31.12c1.94,3.64,3.44,6.48,4.48,8.43l1.19,2.18a4.19,4.19,0,0,0,.44.73,5.85,5.85,0,0,0-.34-.77c-.27-.53-.63-1.27-1.11-2.23-1-2-2.46-4.83-4.34-8.49-3.83-7.38-9.36-18-16.19-31.14-13.83-26.25-32.9-62.47-54-102.49S163.67,93.65,150,67.33c-6.81-13.15-12.28-23.82-16-31.23-1.86-3.7-3.29-6.58-4.23-8.55a17.34,17.34,0,0,1-1.32-3.06,16.53,16.53,0,0,1,1.76,2.84c1.07,1.9,2.62,4.73,4.59,8.38,3.94,7.29,9.55,17.89,16.42,31C165,93,183.78,129.36,204.43,169.56Z"/><path class="cls-1" d="M214.14,165.75c13.93,42.87,26.53,81.67,35.67,109.79l11,33.21c1.32,3.89,2.35,6.92,3,9l.83,2.34a6.2,6.2,0,0,0,.31.78,4.43,4.43,0,0,0-.21-.82c-.17-.56-.41-1.34-.73-2.36-.67-2.1-1.65-5.14-2.91-9.05-2.59-7.88-6.33-19.22-10.95-33.23-9.4-28-22.37-66.72-36.71-109.46S186.17,84.55,177,56.48c-4.6-14-8.27-25.41-10.74-33.29-1.24-3.94-2.18-7-2.78-9.1a16.63,16.63,0,0,1-.81-3.22A17.08,17.08,0,0,1,163.91,14c.76,2,1.83,5.07,3.18,9,2.71,7.81,6.53,19.13,11.19,33.15C187.61,84.1,200.25,122.89,214.14,165.75Z"/><path class="cls-1" d="M224.34,163.47c6.82,44.46,13,84.7,17.46,113.87,2.3,14.54,4.17,26.31,5.46,34.48.68,4.05,1.2,7.2,1.56,9.37.19,1.05.33,1.85.43,2.43a4.56,4.56,0,0,0,.19.82,4.87,4.87,0,0,0-.08-.84c-.08-.58-.19-1.39-.34-2.44-.32-2.18-.8-5.33-1.4-9.39-1.29-8.17-3.15-19.94-5.44-34.48-4.75-29.13-11.3-69.31-18.53-113.72S209.87,79,205.33,49.87c-2.27-14.56-4.05-26.35-5.22-34.51-.58-4.08-1-7.26-1.27-9.41a16.69,16.69,0,0,1-.28-3.31,17.6,17.6,0,0,1,.76,3.24c.41,2.13,1,5.28,1.68,9.34,1.41,8.13,3.36,19.9,5.69,34.45C211.36,78.78,217.56,119,224.34,163.47Z"/><path class="cls-1" d="M234.79,162.77c-.36,44.95-.69,85.63-.92,115.12-.05,14.71-.08,26.62-.11,34.89,0,4.1,0,7.29,0,9.49,0,1.06,0,1.88,0,2.46a5.58,5.58,0,0,0,0,.85,4.6,4.6,0,0,0,.06-.84c0-.59,0-1.41.05-2.47,0-2.2.06-5.39.11-9.49,0-8.27.07-20.18.12-34.89,0-29.49-.08-70.17-.14-115.13s-.11-85.62.06-115.08c.08-14.73.2-26.65.35-34.89.07-4.12.15-7.31.23-9.48A17.15,17.15,0,0,1,235,0a16.44,16.44,0,0,1,.23,3.31c.07,2.17.13,5.37.17,9.49.1,8.23.14,20.16.12,34.88C235.47,77.14,235.18,117.83,234.79,162.77Z"/><path class="cls-1" d="M245.23,163.64c-7.55,44.36-14.37,84.5-19.32,113.59-2.4,14.53-4.34,26.29-5.68,34.45-.64,4.05-1.13,7.2-1.47,9.38-.16,1.05-.27,1.86-.36,2.44a4.8,4.8,0,0,0-.08.84,5.28,5.28,0,0,0,.19-.82c.11-.58.25-1.38.45-2.43.38-2.17.92-5.31,1.62-9.35,1.35-8.17,3.3-19.93,5.71-34.45C231,248.15,237.41,208,244.54,163.53S258.11,78.93,263,49.86c2.43-14.54,4.46-26.3,5.92-34.41.74-4.06,1.33-7.21,1.76-9.34a16.38,16.38,0,0,1,.78-3.23,17,17,0,0,1-.3,3.31c-.28,2.15-.73,5.32-1.34,9.39-1.23,8.16-3.09,19.94-5.46,34.49C259.6,79.16,252.8,119.31,245.23,163.64Z"/><path class="cls-1" d="M255.4,166.1,217.91,275.31l-11.19,33.15c-1.29,3.9-2.28,6.94-3,9l-.75,2.36a7,7,0,0,0-.22.81,4.1,4.1,0,0,0,.32-.78l.84-2.33c.73-2.08,1.78-5.11,3.12-9l11.22-33.14c9.34-28.06,22.22-66.77,36.45-109.55s27.1-81.47,36.63-109.43c4.76-14,8.66-25.29,11.42-33.08,1.39-3.89,2.48-6.91,3.25-9a16.43,16.43,0,0,1,1.3-3.07,17,17,0,0,1-.83,3.22c-.63,2.09-1.58,5.15-2.85,9.08-2.53,7.86-6.28,19.21-11,33.22C283.28,84.87,270.06,123.48,255.4,166.1Z"/><path class="cls-1" d="M265,170.08,210.33,272.2l-16.41,31-4.4,8.46c-.49,1-.86,1.69-1.12,2.22a4.2,4.2,0,0,0-.35.77,4.3,4.3,0,0,0,.44-.72l1.21-2.18,4.53-8.4,16.44-31,53.74-102.6c20.95-40.06,40-76.31,53.9-102.47,7-13.09,12.65-23.65,16.64-30.92,2-3.63,3.56-6.45,4.65-8.34a18.37,18.37,0,0,1,1.77-2.84A16.54,16.54,0,0,1,340,28.25c-.95,2-2.4,4.84-4.28,8.53-3.78,7.38-9.32,18-16.23,31.12C305.71,94.12,286.41,130.23,265,170.08Z"/><path class="cls-1" d="M273.91,175.47,203.46,268l-21.21,28.15c-2.47,3.32-4.39,5.91-5.71,7.7l-1.46,2a6.86,6.86,0,0,0-.47.71,5.42,5.42,0,0,0,.56-.64l1.53-2c1.36-1.76,3.32-4.32,5.83-7.6,5-6.67,12.28-16.28,21.23-28.14l69.58-93.18c27.13-36.38,51.75-69.3,69.72-93,9-11.86,16.3-21.43,21.41-28,2.55-3.28,4.55-5.82,5.93-7.53A16.78,16.78,0,0,1,372.61,44a16.73,16.73,0,0,1-1.82,2.81c-1.25,1.79-3.14,4.41-5.6,7.77-4.91,6.72-12.09,16.38-21,28.28C326.3,106.64,301.43,139.37,273.91,175.47Z"/><path class="cls-1" d="M281.81,182.15,197.4,262.93,172,287.53l-6.87,6.74L163.31,296a7.91,7.91,0,0,0-.58.63,3.45,3.45,0,0,0,.65-.55l1.84-1.71,7-6.63,25.47-24.59,83.64-81.52c32.63-31.84,62.21-60.63,83.76-81.35C375.84,90,384.6,81.61,390.7,75.89c3.05-2.86,5.43-5.07,7.07-6.55a17.46,17.46,0,0,1,2.58-2.16,16.85,16.85,0,0,1-2.24,2.5c-1.53,1.58-3.82,3.88-6.78,6.83-5.93,5.89-14.57,14.35-25.3,24.75C344.58,122.07,314.77,150.65,281.81,182.15Z"/><path class="cls-1" d="M288.54,189.94c-37.6,26.18-71.64,49.86-96.3,67l-29.09,20.45-7.86,5.62-2,1.48a4.78,4.78,0,0,0-.67.54,6,6,0,0,0,.73-.45l2.09-1.41,8-5.5,29.1-20.43,95.67-67.89c37.32-26.53,71.16-50.49,95.76-67.7,12.3-8.61,22.28-15.53,29.22-20.26,3.47-2.37,6.18-4.19,8-5.4a19.18,19.18,0,0,1,2.9-1.75,17.15,17.15,0,0,1-2.61,2.13c-1.77,1.34-4.39,3.26-7.79,5.73-6.8,4.92-16.69,12-28.95,20.62C360.17,140.08,326.15,163.8,288.54,189.94Z"/><path class="cls-1" d="M294,198.65,188,250.23,156,266l-8.67,4.36-2.24,1.16a7.18,7.18,0,0,0-.75.42,5.18,5.18,0,0,0,.8-.33l2.29-1.07,8.74-4.23,32-15.76L293.63,198C334.76,177.51,372,159,399.1,145.72c13.53-6.63,24.51-11.95,32.12-15.56,3.81-1.81,6.78-3.2,8.8-4.11a18.2,18.2,0,0,1,3.15-1.29,17.17,17.17,0,0,1-2.93,1.71c-1.95,1-4.86,2.55-8.61,4.47-7.51,3.83-18.41,9.29-31.91,16C372.71,160.29,335.3,178.55,294,198.65Z"/><path class="cls-1" d="M297.88,208.08,184.94,242.82l-34.17,10.69-9.27,3-2.4.8a5.58,5.58,0,0,0-.81.31,7.86,7.86,0,0,0,.84-.21l2.43-.71,9.32-2.83,34.18-10.67,112.6-35.75c43.94-14,83.75-26.59,112.62-35.54,14.44-4.48,26.14-8.06,34.25-10.46,4.05-1.21,7.21-2.12,9.36-2.72a17.54,17.54,0,0,1,3.31-.78,17.85,17.85,0,0,1-3.16,1.24c-2.11.73-5.22,1.78-9.23,3.09-8,2.64-19.69,6.36-34.1,10.9C381.87,182.24,342,194.55,297.88,208.08Z"/><path class="cls-1" d="M300.23,218,183.07,235l-35.47,5.34L138,241.89l-2.5.42a4.48,4.48,0,0,0-.84.18,5.08,5.08,0,0,0,.86-.08l2.51-.32,9.66-1.38,35.48-5.31,117-18.08c45.66-7.09,87-13.45,117-17.87,15-2.22,27.11-4,35.51-5.1,4.2-.57,7.46-1,9.68-1.24a18.76,18.76,0,0,1,3.4-.28,16.74,16.74,0,0,1-3.33.74c-2.19.41-5.43,1-9.61,1.65-8.36,1.37-20.47,3.27-35.44,5.55C387.36,205.32,346,211.38,300.23,218Z"/><path class="cls-2" d="M429.75,374.57c-5.52,11.53-21.8,16-35.45,9.5s-19.39-21.43-13.86-33,18.42-11.17,32.07-4.62c11.38,5.45,19.59,12.35,18.65,21.6A21.11,21.11,0,0,1,429.75,374.57Z"/><ellipse class="cls-3" cx="406.4" cy="360.14" rx="16.12" ry="26.51" transform="translate(-94.03 570.92) rotate(-64.39)"/><path class="cls-2" d="M430.75,370.78c-.67.19-1.79-2.79-5.64-5.66a23,23,0,0,0-7.32-3.76,17.18,17.18,0,0,0-4.67-.72c-1.7-.06-3.55,0-5.55.11-1,0-2,0-3,0a29.71,29.71,0,0,1-3-.25,33.26,33.26,0,0,1-5.54-1.24,28.23,28.23,0,0,1-4.75-2c-.73-.36-1.38-.79-2-1.17s-1.22-.82-1.75-1.27a16.22,16.22,0,0,1-4.27-4.88,6.12,6.12,0,0,1-.66-1.65c-.09-.41-.06-.65.07-.73.61-.37,2.45,2.24,6.68,4.58a34.14,34.14,0,0,0,18.17,4c1.93-.06,3.92-.14,5.91,0a19.76,19.76,0,0,1,5.8,1.2,22,22,0,0,1,8.15,5.36,14.26,14.26,0,0,1,3.43,5.58c.1.38.18.72.24,1s0,.56,0,.77C431,370.5,430.9,370.73,430.75,370.78Z"/><path class="cls-3" d="M420.68,358.13a14.8,14.8,0,0,1-1.45-.59,20.11,20.11,0,0,0-4.12-1.05,39.49,39.49,0,0,0-6.32-.28c-2.38,0-5,.2-7.8.06a20.82,20.82,0,0,1-7.59-1.83,35.92,35.92,0,0,1-5.57-3.13c-1.5-1-2.67-1.9-3.48-2.51l-.91-.72c-.21-.17-.31-.27-.3-.28a1.75,1.75,0,0,1,.35.21l1,.65c.84.58,2,1.42,3.55,2.4a38.82,38.82,0,0,0,5.55,3,20.56,20.56,0,0,0,7.47,1.76c2.74.14,5.37,0,7.77,0a37.16,37.16,0,0,1,6.37.37,18.78,18.78,0,0,1,4.14,1.19c.46.21.8.41,1,.54A1.25,1.25,0,0,1,420.68,358.13Z"/><path class="cls-3" d="M429.48,369.56a7.41,7.41,0,0,1-.8-.81c-.5-.53-1.24-1.28-2.22-2.14a24.36,24.36,0,0,0-8.77-4.93c-3.8-1.16-7.48-.71-10.08-.72a23.33,23.33,0,0,1-3.11-.14,8.17,8.17,0,0,1-.83-.14,1.09,1.09,0,0,1-.29-.08,7,7,0,0,1,1.14,0,25.87,25.87,0,0,0,3.08,0c1.31,0,2.86-.16,4.6-.15a19.21,19.21,0,0,1,5.61.77,23.26,23.26,0,0,1,8.85,5.12,22.57,22.57,0,0,1,2.15,2.25A5.2,5.2,0,0,1,429.48,369.56Z"/><path class="cls-4" d="M427.29,375.31s-.13.13-.41.35a12.48,12.48,0,0,1-1.29.83,18.94,18.94,0,0,1-5.3,1.91,30.19,30.19,0,0,1-13.21-.45,40.64,40.64,0,0,1-5-1.8,44.65,44.65,0,0,1-15.15-10.58,22.85,22.85,0,0,1-3.27-4.58,11.6,11.6,0,0,1-.65-1.39,2,2,0,0,1-.18-.5s.32.66,1,1.81a24.67,24.67,0,0,0,3.34,4.46,46.17,46.17,0,0,0,15.1,10.39,30.42,30.42,0,0,0,18,2.35,20.43,20.43,0,0,0,5.28-1.77C426.68,375.74,427.26,375.28,427.29,375.31Z"/><g class="cls-5"><path class="cls-6" d="M423.78,356.76a1.2,1.2,0,0,0-.3-.77,29.7,29.7,0,0,0-17.64-11.88c-5.9-1.34-12.73-1.6-17.87,1-1.75.87-1.8,2.8-.2,3.93,3.21,2.29,8.18,5.26,12.31,5.71,4.6.51,9.25-.93,13.86-.49a17.67,17.67,0,0,1,7.77,2.66,2.73,2.73,0,0,0,1.13.5A.84.84,0,0,0,423.78,356.76Z"/></g><path class="cls-2" d="M87.65,380.35c5.13,8.25,1.37,20.53-8.4,26.61s-21.66,3.67-26.79-4.58S52.82,386,62.6,379.93c8.14-5.07,15.92-7.51,21.46-3.13A16.08,16.08,0,0,1,87.65,380.35Z"/><ellipse class="cls-3" cx="68.86" cy="389.42" rx="20.16" ry="12.26" transform="translate(-195.25 95.08) rotate(-31.87)"/><path class="cls-2" d="M85.62,378.16c-.15.51-2.51,0-5.93,1.3a17.56,17.56,0,0,0-5.4,3.16,13,13,0,0,0-2.37,2.7c-.73,1.07-1.42,2.3-2.2,3.6-.39.65-.79,1.31-1.23,1.95a21.7,21.7,0,0,1-1.4,1.84,24.36,24.36,0,0,1-3.06,3A21,21,0,0,1,60.82,398c-.52.32-1.07.57-1.58.82s-1,.45-1.53.61a12.36,12.36,0,0,1-4.87.74,4.61,4.61,0,0,1-1.33-.25c-.29-.11-.44-.23-.44-.35,0-.54,2.44-.65,5.67-2.4a26,26,0,0,0,10-10c.75-1.26,1.51-2.57,2.41-3.79a14.84,14.84,0,0,1,3.14-3.23,16.61,16.61,0,0,1,6.76-3,10.74,10.74,0,0,1,5,.08c.29.09.54.18.75.26a5.45,5.45,0,0,1,.51.29C85.54,377.9,85.65,378.05,85.62,378.16Z"/><path class="cls-3" d="M73.4,379.45a11.37,11.37,0,0,1-1,.68,15.42,15.42,0,0,0-2.36,2.22,30.67,30.67,0,0,0-2.76,3.93c-1,1.55-1.92,3.3-3.15,5a17,17,0,0,1-2,2.34,16.55,16.55,0,0,1-2.25,1.78,27.28,27.28,0,0,1-4.28,2.29c-1.27.55-2.31.94-3,1.2l-.83.3-.3.08s.09-.06.27-.15l.82-.35c.7-.3,1.74-.72,3-1.29a29.16,29.16,0,0,0,4.21-2.33,17.67,17.67,0,0,0,2.2-1.76,17.07,17.07,0,0,0,2-2.3c1.21-1.7,2.19-3.45,3.16-5a27.31,27.31,0,0,1,2.84-3.93A14,14,0,0,1,72.35,380c.33-.21.6-.35.77-.45A1,1,0,0,1,73.4,379.45Z"/><path class="cls-3" d="M84.32,378.48a6.91,6.91,0,0,1-.84.18,22.17,22.17,0,0,0-2.28.55,18.61,18.61,0,0,0-6.75,3.61c-2.29,2-3.51,4.5-4.58,6.16a16.7,16.7,0,0,1-1.36,1.94,4.5,4.5,0,0,1-.43.47c-.1.11-.16.16-.17.15a7.13,7.13,0,0,1,.5-.7,19.9,19.9,0,0,0,1.26-2c.5-.85,1.07-1.9,1.78-3a14.5,14.5,0,0,1,2.79-3.28,17.53,17.53,0,0,1,6.9-3.58,16.88,16.88,0,0,1,2.32-.46A4,4,0,0,1,84.32,378.48Z"/><path class="cls-4" d="M87.12,382.23a3.37,3.37,0,0,1,0,.41,8.76,8.76,0,0,1,0,1.16,14.82,14.82,0,0,1-.93,4.18,21.46,21.46,0,0,1-3.15,5.51,23.33,23.33,0,0,1-2.54,2.78,32.18,32.18,0,0,1-3.2,2.46,34,34,0,0,1-13,5.4,17.69,17.69,0,0,1-4.27.22A8.58,8.58,0,0,1,59,404.2l-.4-.09s.56.06,1.56.11a18.94,18.94,0,0,0,4.23-.32,34.84,34.84,0,0,0,12.83-5.44A23,23,0,0,0,86,387.9a15.5,15.5,0,0,0,1-4.11C87.14,382.79,87.08,382.23,87.12,382.23Z"/><g class="cls-5"><path class="cls-6" d="M73.78,376.9a.88.88,0,0,0-.6-.12,22.57,22.57,0,0,0-14.83,6.45c-3.28,3.24-6.23,7.51-6.69,11.85a1.65,1.65,0,0,0,2.44,1.74c2.78-1.13,6.71-3.1,8.69-5.56C65,388.51,66,385,68.13,382.17A13.35,13.35,0,0,1,73,378.28a2.1,2.1,0,0,0,.78-.52A.63.63,0,0,0,73.78,376.9Z"/></g><path class="cls-2" d="M60.73,340.82c.05,7.2-7.07,13.51-15.6,13.57S30,348.34,30,341.14s6.57-10.21,15.1-10.27c7.1-.05,13,1.41,14.77,6.32A12,12,0,0,1,60.73,340.82Z"/><ellipse class="cls-3" cx="45.34" cy="339.29" rx="14.94" ry="9.08" transform="translate(-2.45 0.34) rotate(-0.41)"/><path class="cls-2" d="M60.29,338.66c-.29.26-1.59-1-4.25-1.48a13.17,13.17,0,0,0-4.64-.09,9.63,9.63,0,0,0-2.54.79c-.88.39-1.79.9-2.78,1.43-.5.26-1,.52-1.53.75a15,15,0,0,1-1.6.62,17.54,17.54,0,0,1-3.11.75,16.09,16.09,0,0,1-2.89.17c-.46,0-.9-.06-1.32-.09s-.82-.11-1.2-.21a9.29,9.29,0,0,1-3.37-1.42,3.39,3.39,0,0,1-.74-.67c-.14-.18-.19-.31-.14-.39.21-.33,1.79.53,4.51.67A19.25,19.25,0,0,0,44.88,337a33.2,33.2,0,0,1,3-1.47,11.07,11.07,0,0,1,3.23-.83,12.43,12.43,0,0,1,5.45.7,7.94,7.94,0,0,1,3.12,2l.36.45a2.19,2.19,0,0,1,.21.38C60.34,338.46,60.36,338.6,60.29,338.66Z"/><path class="cls-3" d="M52.07,334.74a7.15,7.15,0,0,1-.88.06,11.58,11.58,0,0,0-2.35.49,21.84,21.84,0,0,0-3.26,1.42c-1.2.61-2.5,1.34-3.94,2a12.79,12.79,0,0,1-2.18.69,12.27,12.27,0,0,1-2.12.26,20.58,20.58,0,0,1-3.59-.21c-1-.14-1.82-.3-2.38-.41l-.64-.14-.22-.07.23,0,.65.1c.56.08,1.38.21,2.39.33a21.62,21.62,0,0,0,3.55.16,12.9,12.9,0,0,0,2.08-.27,12.09,12.09,0,0,0,2.14-.69c1.42-.6,2.72-1.33,3.93-1.93a20.29,20.29,0,0,1,3.31-1.38,10,10,0,0,1,2.39-.42,6.41,6.41,0,0,1,.66,0Z"/><path class="cls-3" d="M59.35,338.35a2.89,2.89,0,0,1-.61-.21c-.38-.14-.94-.34-1.65-.53a13.64,13.64,0,0,0-5.66-.33,18.19,18.19,0,0,0-5.28,2.12,10.29,10.29,0,0,1-1.61.7,3.44,3.44,0,0,1-.45.14l-.17,0a3.75,3.75,0,0,1,.59-.25c.38-.16.92-.42,1.56-.77s1.41-.79,2.29-1.21a10.48,10.48,0,0,1,3-1,13.25,13.25,0,0,1,5.75.4,14,14,0,0,1,1.64.61A3.36,3.36,0,0,1,59.35,338.35Z"/><path class="cls-4" d="M59.66,341.81a1,1,0,0,1-.12.27,7,7,0,0,1-.45.74,10.82,10.82,0,0,1-2.21,2.28,15.72,15.72,0,0,1-4.12,2.27,17.48,17.48,0,0,1-2.68.77,23.48,23.48,0,0,1-3,.32,25,25,0,0,1-10.29-1.61A12.67,12.67,0,0,1,34,345.34a7.59,7.59,0,0,1-.67-.54q-.22-.19-.21-.21s.32.26.94.68a14.45,14.45,0,0,0,2.8,1.43,25.86,25.86,0,0,0,10.21,1.52A17.18,17.18,0,0,0,56.78,345a12,12,0,0,0,2.24-2.2C59.46,342.17,59.64,341.8,59.66,341.81Z"/><g class="cls-5"><path class="cls-6" d="M53.3,333.28A.65.65,0,0,0,53,333a16.79,16.79,0,0,0-11.87-1.66c-3.32.78-6.84,2.34-8.81,4.91a1.22,1.22,0,0,0,.87,2c2.19.36,5.44.64,7.65-.16,2.45-.88,4.45-2.75,6.89-3.67a10,10,0,0,1,4.59-.58,1.5,1.5,0,0,0,.7,0A.47.47,0,0,0,53.3,333.28Z"/></g><path class="cls-2" d="M314.27,418.66c.05,7.2-7.08,13.51-15.6,13.57S283.55,426.17,283.5,419s6.57-10.2,15.09-10.27c7.11-.05,13,1.41,14.78,6.33A11.94,11.94,0,0,1,314.27,418.66Z"/><path class="cls-3" d="M313.81,417c0,5-6.62,9.13-14.87,9.19s-15-4-15-9,6.62-9.13,14.87-9.18S313.78,412,313.81,417Z"/><path class="cls-2" d="M313.83,416.49c-.29.27-1.59-1-4.25-1.47a12.94,12.94,0,0,0-4.64-.09,9.51,9.51,0,0,0-2.54.79c-.88.39-1.79.9-2.78,1.42-.5.27-1,.52-1.53.76s-1.08.44-1.6.62a18.41,18.41,0,0,1-3.11.74,16.19,16.19,0,0,1-2.9.18c-.45,0-.89-.06-1.31-.1s-.82-.11-1.2-.21a9.13,9.13,0,0,1-3.37-1.41,3.39,3.39,0,0,1-.74-.67c-.15-.19-.19-.32-.15-.39.22-.34,1.8.53,4.52.67a19.27,19.27,0,0,0,10.19-2.47c1-.5,1.94-1,3-1.47a11.37,11.37,0,0,1,3.23-.82,12.28,12.28,0,0,1,5.45.7,7.82,7.82,0,0,1,3.11,2,4.35,4.35,0,0,1,.37.45,2.14,2.14,0,0,1,.21.38C313.88,416.29,313.9,416.43,313.83,416.49Z"/><path class="cls-3" d="M305.61,412.58a7.15,7.15,0,0,1-.88.06,10.93,10.93,0,0,0-2.35.49,20.85,20.85,0,0,0-3.26,1.42c-1.2.6-2.5,1.34-3.94,1.95a12,12,0,0,1-2.18.7,12.39,12.39,0,0,1-2.12.26,21.54,21.54,0,0,1-3.59-.21c-1-.15-1.82-.3-2.38-.42l-.64-.14a.66.66,0,0,1-.22-.06l.23,0,.65.09c.56.09,1.37.22,2.39.34a21.6,21.6,0,0,0,3.55.15A11.83,11.83,0,0,0,293,417a13,13,0,0,0,2.14-.69c1.42-.61,2.72-1.33,3.93-1.93a20.42,20.42,0,0,1,3.31-1.39,10.52,10.52,0,0,1,2.39-.42c.29,0,.51,0,.66,0Z"/><path class="cls-3" d="M312.89,416.19a3.89,3.89,0,0,1-.61-.21,15.25,15.25,0,0,0-1.65-.54,13.85,13.85,0,0,0-5.66-.32,17.92,17.92,0,0,0-5.28,2.12,12.66,12.66,0,0,1-1.61.7,3.09,3.09,0,0,1-.45.13c-.11,0-.17,0-.17,0a5.49,5.49,0,0,1,.59-.25,16,16,0,0,0,1.56-.76c.65-.35,1.41-.79,2.29-1.22a10.79,10.79,0,0,1,3-1,13.1,13.1,0,0,1,5.75.4,12.92,12.92,0,0,1,1.64.61A3,3,0,0,1,312.89,416.19Z"/><path class="cls-4" d="M313.2,419.64a1,1,0,0,1-.12.28,7,7,0,0,1-.45.74,11.07,11.07,0,0,1-2.21,2.28,15.72,15.72,0,0,1-4.12,2.26,16.42,16.42,0,0,1-2.68.78,25.67,25.67,0,0,1-13.26-1.29,13.11,13.11,0,0,1-2.79-1.51c-.31-.21-.51-.42-.67-.54a2.46,2.46,0,0,1-.22-.21s.33.25.95.67a14.05,14.05,0,0,0,2.79,1.43,26.08,26.08,0,0,0,10.22,1.53,17.1,17.1,0,0,0,9.68-3.26,11.38,11.38,0,0,0,2.24-2.2C313,420,313.18,419.63,313.2,419.64Z"/><g class="cls-5"><path class="cls-6" d="M306.83,411.12a.64.64,0,0,0-.33-.32,16.74,16.74,0,0,0-11.87-1.65c-3.32.78-6.84,2.34-8.81,4.9a1.22,1.22,0,0,0,.87,2c2.19.37,5.44.64,7.65-.15,2.45-.88,4.45-2.76,6.89-3.68a10,10,0,0,1,4.59-.57,1.5,1.5,0,0,0,.7,0A.46.46,0,0,0,306.83,411.12Z"/></g><path class="cls-2" d="M453.81,111.54c.06,7.2-7.07,13.5-15.6,13.57s-15.11-6.06-15.16-13.26,6.56-10.21,15.09-10.27c7.11,0,13,1.41,14.78,6.33A11.93,11.93,0,0,1,453.81,111.54Z"/><path class="cls-3" d="M453.36,109.9c0,5-6.62,9.13-14.87,9.19s-15-4-15-9,6.62-9.13,14.87-9.19S453.33,104.88,453.36,109.9Z"/><path class="cls-2" d="M453.38,109.37c-.29.26-1.59-1-4.26-1.47a13.09,13.09,0,0,0-4.63-.1,10.3,10.3,0,0,0-2.54.79c-.88.4-1.79.91-2.78,1.43-.5.26-1,.52-1.54.76s-1.07.44-1.59.62a18.64,18.64,0,0,1-3.11.74,15.32,15.32,0,0,1-2.9.17c-.45,0-.89,0-1.31-.09s-.82-.11-1.2-.21a9.05,9.05,0,0,1-3.37-1.41,3.16,3.16,0,0,1-.74-.68c-.15-.18-.2-.31-.15-.38.22-.34,1.8.52,4.51.67a19.38,19.38,0,0,0,10.2-2.47c1-.51,1.94-1,3-1.47a10.88,10.88,0,0,1,3.24-.82,12.28,12.28,0,0,1,5.45.7,8.08,8.08,0,0,1,3.11,2,5.74,5.74,0,0,1,.37.46,2.14,2.14,0,0,1,.21.38C453.43,109.17,453.44,109.31,453.38,109.37Z"/><path class="cls-3" d="M445.16,105.46s-.32,0-.88.05a11.58,11.58,0,0,0-2.35.49,23,23,0,0,0-3.27,1.42c-1.2.61-2.49,1.35-3.93,2a12.26,12.26,0,0,1-2.18.7,13.42,13.42,0,0,1-2.12.25,19.53,19.53,0,0,1-3.59-.21c-1-.14-1.82-.3-2.38-.41l-.64-.14c-.15,0-.23,0-.22-.06a.92.92,0,0,1,.22,0l.65.1c.57.08,1.38.22,2.39.33a20.63,20.63,0,0,0,3.56.16,11.6,11.6,0,0,0,4.22-1c1.42-.61,2.71-1.34,3.92-1.94a21.29,21.29,0,0,1,3.32-1.38,10,10,0,0,1,2.39-.42c.29,0,.51,0,.66,0Z"/><path class="cls-3" d="M452.44,109.07a5,5,0,0,1-.61-.22c-.38-.14-.94-.34-1.65-.53a13.83,13.83,0,0,0-5.66-.33,17.91,17.91,0,0,0-5.28,2.13,12.66,12.66,0,0,1-1.61.7,4.47,4.47,0,0,1-.46.13c-.1,0-.16,0-.16,0a4.51,4.51,0,0,1,.59-.25,16,16,0,0,0,1.56-.76c.65-.35,1.41-.79,2.29-1.22a10.79,10.79,0,0,1,3-1,13.12,13.12,0,0,1,5.75.4,11.54,11.54,0,0,1,1.64.61A2.76,2.76,0,0,1,452.44,109.07Z"/><path class="cls-4" d="M452.75,112.52a1.53,1.53,0,0,1-.12.28,8.19,8.19,0,0,1-.45.74,11.06,11.06,0,0,1-2.21,2.27,15.89,15.89,0,0,1-4.12,2.27,16.42,16.42,0,0,1-2.68.77,22,22,0,0,1-3,.32,25.21,25.21,0,0,1-10.29-1.6,13.58,13.58,0,0,1-2.79-1.51,6.18,6.18,0,0,1-.67-.55l-.22-.2s.33.25.95.67a13.77,13.77,0,0,0,2.79,1.43,25.89,25.89,0,0,0,10.21,1.52,17,17,0,0,0,9.69-3.25,11.27,11.27,0,0,0,2.23-2.2C452.55,112.88,452.73,112.51,452.75,112.52Z"/><g class="cls-5"><path class="cls-6" d="M446.38,104a.71.71,0,0,0-.33-.31A16.79,16.79,0,0,0,434.18,102c-3.32.79-6.84,2.34-8.81,4.91a1.22,1.22,0,0,0,.87,2c2.19.36,5.44.64,7.64-.15,2.46-.88,4.45-2.76,6.89-3.68a9.87,9.87,0,0,1,4.6-.57,1.46,1.46,0,0,0,.69,0A.47.47,0,0,0,446.38,104Z"/></g><path class="cls-2" d="M411.66,69.43c-7.5,8.07-22,7.61-31.6-1.27s-10.47-22.6-3-30.67,18-4.47,27.58,4.41c8,7.41,12.95,15.18,9.81,22.55A18.19,18.19,0,0,1,411.66,69.43Z"/><ellipse class="cls-3" cx="396.15" cy="51.57" rx="13.89" ry="22.85" transform="translate(88.66 306.61) rotate(-47.09)"/><path class="cls-2" d="M413.45,66.56c-.6,0-.75-2.75-3.19-6.1a19.8,19.8,0,0,0-5.06-5,15,15,0,0,0-3.65-1.79c-1.39-.48-2.94-.87-4.6-1.33-.83-.23-1.66-.48-2.5-.77a26,26,0,0,1-2.42-1,28.32,28.32,0,0,1-4.24-2.44,23.28,23.28,0,0,1-3.41-2.85c-.5-.47-.93-1-1.36-1.48s-.8-1-1.12-1.49a14,14,0,0,1-2.26-5.11,5.26,5.26,0,0,1-.12-1.53c0-.36.11-.55.24-.58.6-.15,1.45,2.47,4.32,5.48a29.45,29.45,0,0,0,13.93,8c1.6.45,3.26.89,4.87,1.5a17.11,17.11,0,0,1,4.46,2.48,18.81,18.81,0,0,1,5.33,6.5,12,12,0,0,1,1.39,5.47c0,.34,0,.63-.06.89a6.58,6.58,0,0,1-.16.64C413.72,66.4,413.59,66.56,413.45,66.56Z"/><path class="cls-3" d="M408.41,53.58s-.38-.31-1-.87a18.06,18.06,0,0,0-3.12-1.91A34,34,0,0,0,399.12,49c-2-.58-4.18-1.12-6.43-2a19.2,19.2,0,0,1-3.16-1.51,19.88,19.88,0,0,1-2.63-1.94,31.41,31.41,0,0,1-3.77-4c-1-1.22-1.72-2.25-2.22-3-.23-.33-.41-.61-.57-.83a1.09,1.09,0,0,1-.18-.31,1.68,1.68,0,0,1,.24.26l.63.79c.54.69,1.3,1.69,2.3,2.88a32.5,32.5,0,0,0,3.8,3.91,17.71,17.71,0,0,0,5.69,3.36c2.22.82,4.42,1.37,6.4,2a31.6,31.6,0,0,1,5.14,2,15.62,15.62,0,0,1,3.1,2c.33.3.56.55.72.71S408.42,53.57,408.41,53.58Z"/><path class="cls-3" d="M412.72,65.24a8,8,0,0,1-.45-.87A23.72,23.72,0,0,0,411,62,21,21,0,0,0,405,55.73c-2.83-1.93-6-2.5-8.11-3.18a17.34,17.34,0,0,1-2.52-.91,6.26,6.26,0,0,1-.65-.33c-.15-.08-.22-.13-.21-.14a7,7,0,0,1,.91.34,26.25,26.25,0,0,0,2.54.79c1.09.29,2.4.6,3.83,1.05a16.63,16.63,0,0,1,4.42,2.08,20,20,0,0,1,6,6.47,19.55,19.55,0,0,1,1.18,2.41A4.15,4.15,0,0,1,412.72,65.24Z"/><path class="cls-4" d="M409.44,69.41a2.34,2.34,0,0,1-.42.18,10.25,10.25,0,0,1-1.27.35,16.79,16.79,0,0,1-4.85.22,24.06,24.06,0,0,1-7-1.81,24.79,24.79,0,0,1-3.79-1.95,35.7,35.7,0,0,1-3.65-2.76,38.61,38.61,0,0,1-9.76-12.59,19.31,19.31,0,0,1-1.51-4.61,9,9,0,0,1-.18-1.31,2.55,2.55,0,0,1,0-.45s.1.62.35,1.73A20.94,20.94,0,0,0,379,50.94a39.7,39.7,0,0,0,9.76,12.42,26.2,26.2,0,0,0,14.19,6.54,17.66,17.66,0,0,0,4.8-.1C408.84,69.6,409.43,69.37,409.44,69.41Z"/><g class="cls-5"><path class="cls-6" d="M411.31,53.24a1,1,0,0,0,0-.7,25.63,25.63,0,0,0-11.48-14.3c-4.51-2.62-10.06-4.58-15-3.79a1.87,1.87,0,0,0-1.17,3.18c2.06,2.71,5.38,6.42,8.67,7.86,3.65,1.59,7.84,1.6,11.52,3.14a15.09,15.09,0,0,1,5.72,4.18,2.23,2.23,0,0,0,.8.7A.71.71,0,0,0,411.31,53.24Z"/></g><path class="cls-2" d="M97.24,41.41c3.17,8.54-2.58,19.11-12.69,22.87S64,63.61,60.79,55.07s3.4-15,13.51-18.73c8.43-3.13,16-3.92,20.31,1.14A15.17,15.17,0,0,1,97.24,41.41Z"/><ellipse class="cls-3" cx="78.28" cy="46.23" rx="18.89" ry="11.49" transform="translate(-11.2 30.14) rotate(-20.37)"/><path class="cls-2" d="M95.78,39c-.23.44-2.31-.46-5.69.09A16.39,16.39,0,0,0,84.54,41a12.47,12.47,0,0,0-2.68,2c-.87.85-1.74,1.85-2.7,2.9-.47.53-1,1.06-1.49,1.56A19.62,19.62,0,0,1,76,48.92a22.82,22.82,0,0,1-3.38,2.22A19.34,19.34,0,0,1,69.3,52.6c-.54.2-1.09.32-1.61.46s-1,.22-1.52.27a11.45,11.45,0,0,1-4.61-.23,4.2,4.2,0,0,1-1.17-.48c-.25-.16-.37-.29-.34-.4.11-.49,2.36-.15,5.65-1.15a24.39,24.39,0,0,0,11-7.33c.93-1,1.87-2.08,2.92-3a13.81,13.81,0,0,1,3.49-2.37,15.54,15.54,0,0,1,6.78-1.52,10.1,10.1,0,0,1,4.56,1c.25.14.46.26.63.38a3.34,3.34,0,0,1,.42.36C95.76,38.76,95.84,38.92,95.78,39Z"/><path class="cls-3" d="M84.32,37.92a10.83,10.83,0,0,1-1,.45A14,14,0,0,0,80.72,40a26.81,26.81,0,0,0-3.27,3.1c-1.17,1.24-2.39,2.67-3.84,4a16.51,16.51,0,0,1-2.29,1.77,14.69,14.69,0,0,1-2.41,1.21,24.54,24.54,0,0,1-4.35,1.3c-1.27.27-2.3.44-3,.54l-.82.12a.91.91,0,0,1-.29,0l.28-.07.81-.17c.71-.15,1.74-.34,3-.64a27.13,27.13,0,0,0,4.3-1.34,15.05,15.05,0,0,0,2.35-1.22,15.62,15.62,0,0,0,2.25-1.74c1.43-1.33,2.65-2.76,3.83-4a26,26,0,0,1,3.35-3.08,12.41,12.41,0,0,1,2.66-1.53c.33-.14.61-.21.79-.27A.87.87,0,0,1,84.32,37.92Z"/><path class="cls-3" d="M94.53,39.07a6.37,6.37,0,0,1-.81,0c-.52,0-1.27,0-2.19.07a17.63,17.63,0,0,0-6.88,2.06c-2.47,1.37-4.06,3.48-5.36,4.81a14.5,14.5,0,0,1-1.61,1.52c-.2.17-.37.28-.48.36S77,48,77,48a5.32,5.32,0,0,1,.59-.55,20.44,20.44,0,0,0,1.52-1.58c.62-.69,1.34-1.55,2.2-2.44a14.06,14.06,0,0,1,3.18-2.49,16.71,16.71,0,0,1,7-2,15.53,15.53,0,0,1,2.22,0A3.29,3.29,0,0,1,94.53,39.07Z"/><path class="cls-4" d="M96.39,43s0,.13,0,.38a10.18,10.18,0,0,1-.21,1.07,13.66,13.66,0,0,1-1.65,3.66,20.08,20.08,0,0,1-3.92,4.48,20.87,20.87,0,0,1-2.85,2.07,27.52,27.52,0,0,1-3.4,1.67A31.77,31.77,0,0,1,71.42,58.9a16.32,16.32,0,0,1-4-.59,8.15,8.15,0,0,1-1-.36,2.19,2.19,0,0,1-.35-.15s.5.16,1.41.39a17.51,17.51,0,0,0,3.94.5,32.9,32.9,0,0,0,12.81-2.6A21.62,21.62,0,0,0,94.33,48,14.45,14.45,0,0,0,96,44.46C96.31,43.56,96.37,43,96.39,43Z"/><g class="cls-5"><path class="cls-6" d="M85.14,35.65a.81.81,0,0,0-.53-.23,21.24,21.24,0,0,0-14.83,3.16c-3.61,2.36-7.12,5.73-8.35,9.63a1.55,1.55,0,0,0,1.91,2.06c2.77-.52,6.74-1.59,9-3.49,2.53-2.11,4.1-5.2,6.6-7.34a12.52,12.52,0,0,1,5.21-2.67,1.92,1.92,0,0,0,.82-.33A.59.59,0,0,0,85.14,35.65Z"/></g></g><g id="Coffee_Bean" data-name="Coffee Bean"><path class="cls-7" d="M264.38,65.59c5.78,9.47,1.36,23.46-9.86,30.3s-24.77,4-30.55-5.5.59-18.7,11.81-25.54c9.36-5.7,18.26-8.41,24.55-3.35A18.29,18.29,0,0,1,264.38,65.59Z"/><ellipse class="cls-8" cx="242.83" cy="75.76" rx="23.02" ry="13.99" transform="translate(-3.95 137.46) rotate(-31.36)"/><path class="cls-7" d="M262.09,63.07c-.24.74-2.91.32-6.68,1.85a20.33,20.33,0,0,0-5.95,3.57,15.17,15.17,0,0,0-2.6,3c-.82,1.18-1.61,2.57-2.51,4.06a29.79,29.79,0,0,1-3.1,4.36,28.85,28.85,0,0,1-3.62,3.49,22.84,22.84,0,0,1-7.45,4.09,13.63,13.63,0,0,1-5.72.64c-1.36-.18-2.06-.61-2-.94,0-.79,2.77-1.06,6.33-3.09A30.66,30.66,0,0,0,239.9,72.81c.87-1.42,1.76-2.92,2.83-4.34a17.27,17.27,0,0,1,3.75-3.74,18.79,18.79,0,0,1,8-3.37,12,12,0,0,1,5.82.32l.86.36a5.43,5.43,0,0,1,.57.4C262,62.69,262.14,62.9,262.09,63.07Z"/><g class="cls-9"><path d="M262.13,63c-.16-.06-.14,0-.33,0a12.2,12.2,0,0,0-5.68-.14A17.89,17.89,0,0,0,252.34,64a19.57,19.57,0,0,0-4,2.26,17.17,17.17,0,0,0-3.62,3.65c-1,1.39-1.91,2.87-2.78,4.3a29.61,29.61,0,0,1-11.52,11.34,36.3,36.3,0,0,1-6.07,2.31,3.16,3.16,0,0,0,.32,0,14,14,0,0,0,5.57-.8,18.45,18.45,0,0,0,1.75-.68c.58-.28,1.21-.56,1.81-.92A23.42,23.42,0,0,0,237.51,83,27.89,27.89,0,0,0,241,79.5c.27-.33.55-.66.82-1s.54-.71.79-1.08c.51-.72,1-1.47,1.43-2.21.9-1.48,1.7-2.88,2.54-4.09a15.14,15.14,0,0,1,2.74-3.06,19.15,19.15,0,0,1,3.14-2.16,19.59,19.59,0,0,1,7.87-2.43,7.32,7.32,0,0,0,.78-.11,4.84,4.84,0,0,0,.61-.06C262,63.26,262,63.11,262.13,63Z"/></g><path class="cls-10" d="M248.12,64.41a6.71,6.71,0,0,1-1.1.8,17.9,17.9,0,0,0-2.69,2.52,34.39,34.39,0,0,0-3.17,4.47c-1.1,1.75-2.22,3.75-3.65,5.71a18.43,18.43,0,0,1-4.94,4.68,31.32,31.32,0,0,1-4.93,2.56c-1.46.61-2.66,1-3.49,1.32a7.61,7.61,0,0,1-1.31.39,6.4,6.4,0,0,1,1.24-.58c.81-.34,2-.82,3.41-1.47a33.2,33.2,0,0,0,4.81-2.62,18.33,18.33,0,0,0,4.79-4.59c1.4-1.92,2.54-3.91,3.66-5.66a32.1,32.1,0,0,1,3.31-4.46A15.3,15.3,0,0,1,246.91,65,6,6,0,0,1,248.12,64.41Z"/><path class="cls-10" d="M260.61,63.42c0,.09-1.4.23-3.56.85a21.48,21.48,0,0,0-7.71,4.06c-2.63,2.2-4.05,5.08-5.3,7a17.6,17.6,0,0,1-1.59,2.19,3.06,3.06,0,0,1-.72.69c-.06-.06.88-1.1,2-3.07s2.54-4.87,5.28-7.17a19.78,19.78,0,0,1,7.94-4,18.21,18.21,0,0,1,2.66-.48A3,3,0,0,1,260.61,63.42Z"/><path class="cls-10" d="M263.76,67.73a2.19,2.19,0,0,1,.07.46,9.44,9.44,0,0,1,0,1.34,16.88,16.88,0,0,1-1.09,4.78,24.36,24.36,0,0,1-3.66,6.28,23.87,23.87,0,0,1-2.93,3.16,36.58,36.58,0,0,1-3.68,2.79,38.56,38.56,0,0,1-14.9,6,19.32,19.32,0,0,1-4.89.18,9.71,9.71,0,0,1-1.32-.19,1.45,1.45,0,0,1-.45-.12c0-.05.64,0,1.78.11a22.14,22.14,0,0,0,4.82-.35,40,40,0,0,0,14.67-6.09A26.29,26.29,0,0,0,262.4,74.17a18.36,18.36,0,0,0,1.24-4.66C263.76,68.37,263.71,67.74,263.76,67.73Z"/><g class="cls-5"><path class="cls-6" d="M248.59,61.51a1,1,0,0,0-.7-.15,25.81,25.81,0,0,0-17,7.22c-3.77,3.67-7.19,8.51-7.76,13.46a1.89,1.89,0,0,0,2.77,2c3.18-1.26,7.69-3.46,10-6.26,2.54-3.11,3.7-7.17,6.19-10.32a15.31,15.31,0,0,1,5.62-4.4,2.29,2.29,0,0,0,.9-.58A.72.72,0,0,0,248.59,61.51Z"/></g><g class="cls-5"><path class="cls-6" d="M234.55,89.42a1.13,1.13,0,0,0,.73.16,26.94,26.94,0,0,0,17.77-7.5c3.95-3.82,7.53-8.87,8.14-14a2,2,0,0,0-2.89-2.11c-3.33,1.31-8,3.61-10.44,6.52-2.67,3.24-3.88,7.48-6.5,10.76a15.93,15.93,0,0,1-5.87,4.58,2.43,2.43,0,0,0-1,.61A.76.76,0,0,0,234.55,89.42Z"/></g><path class="cls-6" d="M260.69,69.87a6.66,6.66,0,0,1-.45,1.25,12.93,12.93,0,0,1-.63,1.43c-.28.54-.56,1.17-1,1.82a31.65,31.65,0,0,1-3.07,4.42,33.49,33.49,0,0,1-10.19,8.28,32,32,0,0,1-4.95,2.1c-.72.27-1.4.42-2,.58a15,15,0,0,1-1.53.33,7,7,0,0,1-1.31.18c0-.11,1.85-.42,4.7-1.44a34.65,34.65,0,0,0,4.85-2.18,38.77,38.77,0,0,0,5.4-3.61,39.38,39.38,0,0,0,4.64-4.55,34.78,34.78,0,0,0,3.12-4.3C259.91,71.6,260.59,69.83,260.69,69.87Z"/><path class="cls-7" d="M190.69,57.21c-6.2,9.2-20.75,11-31.65,3.68S145.09,40,151.29,30.83s17.23-7.27,28.13.08C188.51,37,194.69,44,192.71,51.81A18.27,18.27,0,0,1,190.69,57.21Z"/><ellipse class="cls-8" cx="172.45" cy="41.87" rx="13.99" ry="23.02" transform="translate(41.36 161.48) rotate(-56.03)"/><path class="cls-7" d="M192,54.07c-.77.09-1.5-2.51-4.46-5.29a20.31,20.31,0,0,0-5.74-3.93A15.06,15.06,0,0,0,178,43.73c-1.42-.25-3-.39-4.73-.58a31.68,31.68,0,0,1-5.26-1,27.63,27.63,0,0,1-4.68-1.84,22.66,22.66,0,0,1-6.83-5.06,13.67,13.67,0,0,1-3-4.94c-.4-1.31-.3-2.11,0-2.24.73-.29,2.12,2.07,5.45,4.46A30.52,30.52,0,0,0,173.91,38c1.65.2,3.39.38,5.12.76a17.22,17.22,0,0,1,5,1.85,19,19,0,0,1,6.4,5.86,12,12,0,0,1,2.14,5.43c0,.35,0,.66,0,.93a3.5,3.5,0,0,1-.12.68C192.34,53.86,192.2,54.05,192,54.07Z"/><g class="cls-9"><path d="M192.08,54.08c0-.17-.07-.11-.1-.31a12.3,12.3,0,0,0-2.24-5.22,17.57,17.57,0,0,0-2.62-3,19.28,19.28,0,0,0-3.7-2.66,17.21,17.21,0,0,0-4.83-1.77c-1.7-.36-3.41-.54-5.07-.73a29.67,29.67,0,0,1-15.12-5.74,37,37,0,0,1-4.63-4.55c0,.1.07.2.11.3a14.07,14.07,0,0,0,3.05,4.73c.4.45.87.85,1.35,1.31s1,.86,1.59,1.26A24,24,0,0,0,163.7,40a27.82,27.82,0,0,0,4.6,1.77l1.26.33c.44.1.87.19,1.31.27.87.15,1.74.27,2.6.37,1.72.2,3.33.34,4.78.6a15.06,15.06,0,0,1,3.93,1.22,18.36,18.36,0,0,1,3.27,1.95,18.88,18.88,0,0,1,2.54,2.2,18.67,18.67,0,0,1,2.95,3.94c.14.26.3.45.42.66s.22.39.31.53S192,54.05,192.08,54.08Z"/></g><path class="cls-10" d="M185,41.94a7.68,7.68,0,0,1-1.18-.67,18.22,18.22,0,0,0-3.41-1.39,34.38,34.38,0,0,0-5.39-1c-2.05-.27-4.33-.46-6.71-.93A18.36,18.36,0,0,1,162,35.38a31.12,31.12,0,0,1-4.38-3.4c-1.16-1.07-2.05-2-2.65-2.62a6.45,6.45,0,0,1-.9-1,7.15,7.15,0,0,1,1,.88c.65.59,1.57,1.47,2.76,2.49A33.37,33.37,0,0,0,162.22,35a18.41,18.41,0,0,0,6.17,2.44c2.33.47,4.6.67,6.67,1a32.07,32.07,0,0,1,5.43,1.15,15.31,15.31,0,0,1,3.4,1.57A5.87,5.87,0,0,1,185,41.94Z"/><path class="cls-10" d="M191.09,52.87c-.08.05-.79-1.17-2.27-2.88a21.38,21.38,0,0,0-6.9-5.31c-3.1-1.47-6.3-1.56-8.54-1.91a18.19,18.19,0,0,1-2.65-.53,3.23,3.23,0,0,1-.93-.37c0-.07,1.37.34,3.63.53s5.48.28,8.71,1.81a20,20,0,0,1,7,5.54A19.69,19.69,0,0,1,190.65,52,3.25,3.25,0,0,1,191.09,52.87Z"/><path class="cls-10" d="M188.48,57.53s-.13.11-.39.26a11.26,11.26,0,0,1-1.21.57,16.86,16.86,0,0,1-4.8,1,26.2,26.2,0,0,1-11.33-2,35,35,0,0,1-4.07-2.18A38.49,38.49,0,0,1,155,44.1a19.65,19.65,0,0,1-2.22-4.37,11.91,11.91,0,0,1-.37-1.28,1.89,1.89,0,0,1-.08-.45s.22.6.64,1.66a22.5,22.5,0,0,0,2.33,4.24A40.26,40.26,0,0,0,167,54.69a26.39,26.39,0,0,0,15.1,4.3,18.18,18.18,0,0,0,4.75-.82C187.9,57.8,188.46,57.49,188.48,57.53Z"/><g class="cls-5"><path class="cls-6" d="M187.8,41.15a1,1,0,0,0-.15-.69A25.83,25.83,0,0,0,174,28c-4.91-1.89-10.74-3-15.47-1.43a1.89,1.89,0,0,0-.68,3.36c2.48,2.37,6.37,5.54,9.86,6.45,3.89,1,8.06.37,12,1.33A15.36,15.36,0,0,1,186,41a2.4,2.4,0,0,0,.91.58A.72.72,0,0,0,187.8,41.15Z"/></g><g class="cls-5"><path class="cls-6" d="M156.58,40a1.12,1.12,0,0,0,.16.73,27,27,0,0,0,14.23,13c5.12,2,11.2,3.14,16.16,1.53a2,2,0,0,0,.71-3.49c-2.58-2.49-6.63-5.81-10.28-6.78-4.06-1.07-8.42-.4-12.49-1.41a16,16,0,0,1-6.62-3.43,2.36,2.36,0,0,0-.94-.6A.77.77,0,0,0,156.58,40Z"/></g><path class="cls-6" d="M185.25,55.64a7.57,7.57,0,0,1-1.32.12c-.43,0-1,0-1.56,0s-1.3,0-2.06-.12a31.46,31.46,0,0,1-5.3-.95,36.8,36.8,0,0,1-6.17-2.31,36.48,36.48,0,0,1-5.6-3.49,31.84,31.84,0,0,1-4-3.62c-.54-.54-1-1.1-1.35-1.56a15.06,15.06,0,0,1-.94-1.25,6.79,6.79,0,0,1-.71-1.12c.09-.06,1.15,1.51,3.27,3.68a35.38,35.38,0,0,0,4,3.49,38.79,38.79,0,0,0,5.54,3.4,38.77,38.77,0,0,0,6.07,2.32,33.42,33.42,0,0,0,5.21,1C183.36,55.64,185.25,55.53,185.25,55.64Z"/><path class="cls-7" d="M319.53,39.08c-2.3,7.79-12,12.28-21.28,9.56S283.9,37.16,286.2,29.37s10.43-8.88,19.66-6.16c7.69,2.27,13.54,5.76,13.89,11.66A13.44,13.44,0,0,1,319.53,39.08Z"/><ellipse class="cls-8" cx="303.41" cy="32.4" rx="10.25" ry="16.85" transform="translate(186.54 314.26) rotate(-73.57)"/><path class="cls-7" d="M319.77,36.6c-.36.18-1.33-1.62-4.06-3.07a14.69,14.69,0,0,0-5-1.67c-1.91-.3-4,.14-6.52.65a22.4,22.4,0,0,1-3.81.46,20.85,20.85,0,0,1-3.58-.2A17,17,0,0,1,291,30.9a10.43,10.43,0,0,1-3.18-2.57c-.61-.76-.78-1.29-.65-1.4.31-.26,1.71,1.22,4.61,2.3a21.42,21.42,0,0,0,11.88.72c1.21-.23,2.44-.49,3.7-.61a12.12,12.12,0,0,1,3.72.16A13.77,13.77,0,0,1,316.72,32a8.94,8.94,0,0,1,2.73,3.09C319.9,36,319.91,36.54,319.77,36.6Z"/><g class="cls-9"><path d="M319.81,36.59c0-.11-.08-.06-.14-.19A8.89,8.89,0,0,0,317,33.25a13.25,13.25,0,0,0-2.47-1.49,14,14,0,0,0-3.18-1,12.38,12.38,0,0,0-3.76-.17c-1.26.12-2.5.38-3.7.61A21.73,21.73,0,0,1,292,30.49a26.46,26.46,0,0,1-4.24-2.16l.14.19a10.33,10.33,0,0,0,3.18,2.63c.37.23.79.4,1.23.62s.89.37,1.38.52a17.82,17.82,0,0,0,3.18.76,21.1,21.1,0,0,0,3.61.22l.95-.05,1-.1c.64-.09,1.28-.2,1.9-.32,1.25-.24,2.4-.49,3.47-.63a10.86,10.86,0,0,1,3,0,14.23,14.23,0,0,1,2.72.64,14,14,0,0,1,2.26,1,13.1,13.1,0,0,1,2.92,2.09c.16.16.31.26.44.37l.34.3C319.64,36.66,319.72,36.59,319.81,36.59Z"/></g><path class="cls-10" d="M312.17,29.69a16.88,16.88,0,0,0-3.66-.38,26,26,0,0,0-4,.49c-1.49.27-3.12.65-4.89.84a13.39,13.39,0,0,1-5-.39,21.86,21.86,0,0,1-3.81-1.43c-1.05-.5-1.87-.94-2.43-1.26a3.46,3.46,0,0,1-.84-.55c0-.07,1.31.56,3.42,1.47a16.78,16.78,0,0,0,8.6,1.64c1.73-.19,3.36-.55,4.87-.79a22.37,22.37,0,0,1,4.05-.39,11.18,11.18,0,0,1,2.73.37A3,3,0,0,1,312.17,29.69Z"/><path class="cls-10" d="M318.85,36c-.06.07-.83-.61-2.24-1.46a15.75,15.75,0,0,0-6-2.16,21,21,0,0,0-6.36.53,7.06,7.06,0,0,1-2.71.12c0-.08,1-.1,2.64-.48a18.36,18.36,0,0,1,6.5-.69,14.45,14.45,0,0,1,6.11,2.37A7.7,7.7,0,0,1,318.85,36Z"/><path class="cls-10" d="M318.06,39.8a3.76,3.76,0,0,1-.92,1A12.18,12.18,0,0,1,314,42.53a18,18,0,0,1-5.22,1.13,18.62,18.62,0,0,1-3.16,0,27.53,27.53,0,0,1-3.34-.63,28,28,0,0,1-10.6-5.15,14.43,14.43,0,0,1-2.5-2.58,7,7,0,0,1-.53-.82c-.11-.2-.17-.3-.15-.31a20.4,20.4,0,0,0,3.41,3.42,29.79,29.79,0,0,0,10.5,4.94,19.41,19.41,0,0,0,11.46-.32A13.84,13.84,0,0,0,317,40.59C317.7,40.1,318,39.77,318.06,39.8Z"/><g class="cls-5"><path class="cls-6" d="M314,28.51a.77.77,0,0,0-.26-.45,18.9,18.9,0,0,0-12.28-5.67c-3.84-.24-8.15.29-11.11,2.42a1.38,1.38,0,0,0,.27,2.49c2.25,1.11,5.66,2.47,8.3,2.33,2.94-.15,5.71-1.52,8.65-1.72a11.38,11.38,0,0,1,5.15.88,1.7,1.7,0,0,0,.76.21A.54.54,0,0,0,314,28.51Z"/></g><g class="cls-5"><path class="cls-6" d="M291.93,34.63a.81.81,0,0,0,.27.47A19.73,19.73,0,0,0,305,41.05c4,.26,8.51-.28,11.62-2.5a1.44,1.44,0,0,0-.28-2.6c-2.35-1.16-5.91-2.59-8.67-2.45-3.07.14-6,1.57-9,1.77a11.84,11.84,0,0,1-5.38-.94,1.73,1.73,0,0,0-.79-.21A.56.56,0,0,0,291.93,34.63Z"/></g><path class="cls-6" d="M315.39,39.19a3.85,3.85,0,0,1-.89.4,17,17,0,0,1-2.55.74,22.56,22.56,0,0,1-3.91.53,26.23,26.23,0,0,1-4.84-.25,26.52,26.52,0,0,1-4.69-1.21,23.31,23.31,0,0,1-3.58-1.66,18.4,18.4,0,0,1-2.21-1.48,3.53,3.53,0,0,1-.73-.65c.06-.08,1.16.77,3.12,1.8A26.1,26.1,0,0,0,298.67,39a27.75,27.75,0,0,0,4.61,1.14,28.21,28.21,0,0,0,4.74.29,26.59,26.59,0,0,0,3.86-.41C314.06,39.57,315.36,39.09,315.39,39.19Z"/></g><g id="Coffee_Cup_2" data-name="Coffee Cup 2"><ellipse class="cls-10" cx="333.48" cy="165.26" rx="29.02" ry="86.86" transform="translate(90.75 447.4) rotate(-75.65)"/><path class="cls-11" d="M378.83,200.7a176.3,176.3,0,0,1-19.22-1.13,242.43,242.43,0,0,1-33.32-6.17,241.86,241.86,0,0,1-32.19-10.58A157.06,157.06,0,0,1,268.89,170c-7.07-4.56-12.37-9.12-15.76-13.56s-4.79-8.85-3.82-12.65,4.15-6.93,9.43-9.28c5.1-2.26,11.93-3.72,20.33-4.32a157.63,157.63,0,0,1,28.29.81,251.7,251.7,0,0,1,65.51,16.76,157.9,157.9,0,0,1,25.21,12.86c7.07,4.56,12.37,9.13,15.76,13.56,3.5,4.6,4.79,8.85,3.82,12.66s-4.15,6.92-9.43,9.27c-5.1,2.26-11.94,3.72-20.33,4.33C385,200.59,382,200.7,378.83,200.7Zm-90.69-70.83c-3.15,0-6.18.11-9.07.32-8.39.6-15.22,2.06-20.31,4.32-5.27,2.34-8.43,5.45-9.4,9.24s.31,8,3.81,12.61c3.38,4.43,8.68,9,15.74,13.55a158.32,158.32,0,0,0,25.21,12.86,241.24,241.24,0,0,0,32.18,10.58,242.43,242.43,0,0,0,33.32,6.17,157.61,157.61,0,0,0,28.28.82c8.39-.61,15.22-2.06,20.31-4.33,5.27-2.34,8.43-5.45,9.4-9.24h0c1-3.78-.31-8-3.81-12.61-3.38-4.43-8.68-9-15.74-13.54a157.78,157.78,0,0,0-25.2-12.87A252.22,252.22,0,0,0,307.35,131,176.13,176.13,0,0,0,288.14,129.87Z"/><ellipse class="cls-10" cx="346.8" cy="114.97" rx="22.6" ry="66.46" transform="translate(149.49 422.47) rotate(-75.65)"/><path class="cls-11" d="M381,142.39a134.14,134.14,0,0,1-14.26-.81,183.23,183.23,0,0,1-25.51-4.69,183.55,183.55,0,0,1-24.62-8.13,119.33,119.33,0,0,1-19.27-9.93c-5.41-3.53-9.45-7.06-12-10.49s-3.64-6.88-2.88-9.84,3.19-5.4,7.25-7.24,9.16-2.94,15.59-3.44a119.39,119.39,0,0,1,21.67.55A188.51,188.51,0,0,1,377,101.19a119,119,0,0,1,19.27,9.92c5.4,3.53,9.44,7.06,12,10.5s3.64,6.87,2.89,9.83-3.2,5.4-7.26,7.25c-3.91,1.78-9.15,2.93-15.58,3.43Q384.83,142.39,381,142.39ZM312.63,87.6c-2.57,0-5.05.09-7.4.27-6.42.5-11.66,1.65-15.57,3.43s-6.47,4.26-7.22,7.21.21,6.24,2.87,9.8,6.62,7,12,10.48a118.83,118.83,0,0,0,19.26,9.92,182.6,182.6,0,0,0,24.62,8.13,183.1,183.1,0,0,0,25.5,4.69,118.32,118.32,0,0,0,21.66.54c6.43-.5,11.67-1.65,15.57-3.43s6.47-4.26,7.23-7.21-.22-6.24-2.88-9.79-6.62-7-12-10.48A118,118,0,0,0,377,101.23a184,184,0,0,0-24.62-8.13,181.58,181.58,0,0,0-25.5-4.68A131.67,131.67,0,0,0,312.63,87.6Z"/><path class="cls-10" d="M271.7,116.41c-.71.48-14.29,18.72-14.29,18.72L417.62,181.6l-3.78-27-1.95-4-.55-21.27L282.82,97.32,274.57,115Z"/><polygon class="cls-11" points="263.48 135.13 237.41 280.17 225.77 353.17 339.38 383.15 408.52 184.56 413.84 175.05 263.48 135.13"/><g class="cls-9"><path d="M236,288.9a154.78,154.78,0,0,1,58.3,0c30.87,6.22,65.05,36.82,65.05,36.82l2.5-7.36L338.38,300,311,282l-38.17-7.45-35.43,5.62Z"/></g><ellipse class="cls-11" cx="337.3" cy="159.59" rx="22.6" ry="81.04" transform="translate(99.11 446.83) rotate(-75.65)"/><path class="cls-10" d="M408.06,186.68a2,2,0,0,1,0-.43,5.52,5.52,0,0,0,.1-1.24,9.55,9.55,0,0,0-1.28-4.58c-2-3.72-6.44-8-12.7-12.15-12.53-8.31-31.93-16.34-54.12-22S297,138.31,282,139.59c-7.46.6-13.46,2.24-17,4.56a9.62,9.62,0,0,0-3.32,3.4,5.79,5.79,0,0,0-.51,1.14,2.59,2.59,0,0,1-.17.4,3.92,3.92,0,0,1,.12-.42,5,5,0,0,1,.47-1.17A9.49,9.49,0,0,1,265,144c3.52-2.4,9.56-4.11,17.05-4.76,15-1.37,36,.85,58.23,6.52s41.66,13.81,54.19,22.23c6.26,4.17,10.74,8.57,12.68,12.36a9.46,9.46,0,0,1,1.2,4.68,5,5,0,0,1-.15,1.25C408.1,186.54,408.06,186.68,408.06,186.68Z"/><path class="cls-11" d="M412.19,151.14l-.3-.24-.81-.75-1.32-1.21-1.89-1.57a90.27,90.27,0,0,0-13-8.64c-11.49-6.48-28.61-13-48.08-18.1a208.19,208.19,0,0,0-50.95-6.71c-6.59,0-11.92.24-15.6.54-1.84.14-3.26.29-4.23.4l-1.1.1a1.29,1.29,0,0,1-.37,0,1.84,1.84,0,0,1,.37-.07l1.09-.16c1-.14,2.38-.32,4.22-.49,3.68-.36,9-.71,15.62-.7A202.51,202.51,0,0,1,347,120.13c19.5,5.05,36.65,11.7,48.13,18.28a86.25,86.25,0,0,1,12.92,8.8l1.86,1.61,1.29,1.26c.33.33.59.58.78.78A2.3,2.3,0,0,1,412.19,151.14Z"/><path class="cls-8" d="M252.66,188.1l-15.82,96.83c49.33-10.58,88.55,2.62,125.53,36.95l31.4-94.95C356.79,192.6,302,177.52,252.66,188.1Z"/><ellipse class="cls-11" cx="282.69" cy="367.67" rx="11.4" ry="58.74" transform="matrix(0.25, -0.97, 0.97, 0.25, -144.38, 548.51)"/><g class="cls-9"><ellipse cx="282.69" cy="367.67" rx="11.4" ry="58.74" transform="matrix(0.25, -0.97, 0.97, 0.25, -144.38, 548.51)"/></g><path class="cls-6" d="M280.11,221.73q2.07.66,2.13,2a7.31,7.31,0,0,1-.83,3.22c-.59,1.29-1.11,1.95-1.55,2a.79.79,0,0,1-.43-.18,3.21,3.21,0,0,0-1.12-.39,5.43,5.43,0,0,0-1.5-.18,4.31,4.31,0,0,0-3.36,1.67,6.9,6.9,0,0,0-1.1,4.67A6.82,6.82,0,0,0,273.9,239a4.38,4.38,0,0,0,3.47,1.35,9,9,0,0,0,1.88-.33,3,3,0,0,0,1.46-.75.38.38,0,0,1,.29-.08c.14,0,.43.25.86.79a9,9,0,0,1,1.22,2.11,6.39,6.39,0,0,1,.61,2.05c0,1-.66,1.75-2.1,2.38a14.53,14.53,0,0,1-5.18,1.08,10.34,10.34,0,0,1-8.13-3.05q-3.27-3.27-3.56-9.5t2.77-9.93a10.31,10.31,0,0,1,7.86-3.93A13.43,13.43,0,0,1,280.11,221.73Z"/><path class="cls-6" d="M287.41,245.07a11.89,11.89,0,0,1,1.37-14,8.82,8.82,0,0,1,12.31,1.2,12,12,0,0,1-1.36,14,8.81,8.81,0,0,1-12.32-1.2Zm7.2-9.79c-1.38-.14-2.18.92-2.4,3.16s.37,3.44,1.74,3.57,2.18-.92,2.4-3.16S296,235.41,294.61,235.28Z"/><path class="cls-6" d="M307.88,236.24l-1.76-.38c-.36-.07-.37-.91,0-2.5s.69-2.36,1-2.28l1.76.38.17-.79q.82-3.81,2.74-4.92a6.58,6.58,0,0,1,4.79-.49,12,12,0,0,1,4.84,2.14c.18.11.22.39.12.83a6.49,6.49,0,0,1-1.07,2c-.62.89-1.09,1.38-1.41,1.46a4.74,4.74,0,0,0-2.35-1.29c-.93-.21-1.54.32-1.81,1.56l-.16.76,3,.64c.44.09.49.91.16,2.44-.37,1.68-.82,2.46-1.37,2.34l-2.3-.5-2.75,12.73c-.07.28-1.16.2-3.28-.26s-3.15-.83-3.09-1.12Z"/><path class="cls-6" d="M322,239.63l-1.72-.55c-.35-.11-.28-.94.22-2.49s.92-2.28,1.27-2.17l1.72.55.25-.77c.79-2.47,1.85-4,3.2-4.63a6.55,6.55,0,0,1,4.81,0,11.92,11.92,0,0,1,4.61,2.59c.17.13.18.41,0,.85a6.78,6.78,0,0,1-1.26,1.89c-.7.83-1.22,1.27-1.54,1.32a4.91,4.91,0,0,0-2.22-1.52q-1.37-.44-1.95,1.38l-.23.74,2.9.93c.42.14.4,1-.08,2.44-.53,1.64-1.06,2.37-1.59,2.2l-2.24-.72-4,12.4q-.13.42-3.24-.57c-2.06-.66-3.05-1.14-3-1.42Z"/><path class="cls-6" d="M341.29,260.46a11.57,11.57,0,0,1-6-1.16,8.33,8.33,0,0,1-4.62-4.75,9.25,9.25,0,0,1,.48-7.3,10.19,10.19,0,0,1,5.06-5.5,7.84,7.84,0,0,1,6.66,0,8,8,0,0,1,4.44,4,6,6,0,0,1,0,5q-2.4,5.46-8.66,2.69l-2.32-1a1.71,1.71,0,0,0-.06,1.64,3.1,3.1,0,0,0,1.46,1.11,10.75,10.75,0,0,0,4.95.9s.06.19.09.6a5.62,5.62,0,0,1-.27,2.8C342.2,260.11,341.8,260.45,341.29,260.46Zm.08-11.58a1.35,1.35,0,0,0-.76-2,1.79,1.79,0,0,0-1.26-.1,1.57,1.57,0,0,0-1,.93l-.46,1,1.82.81A1.1,1.1,0,0,0,341.37,248.88Z"/><path class="cls-6" d="M356.12,269.13a11.56,11.56,0,0,1-5.8-1.92,8.35,8.35,0,0,1-4-5.3,9.24,9.24,0,0,1,1.42-7.18,10.25,10.25,0,0,1,5.73-4.81,7.81,7.81,0,0,1,6.59.86,8,8,0,0,1,3.89,4.55,6,6,0,0,1-.65,4.93q-3.07,5.1-8.93,1.56l-2.17-1.32a1.74,1.74,0,0,0-.27,1.62,3.08,3.08,0,0,0,1.3,1.29,10.69,10.69,0,0,0,4.8,1.53s0,.19,0,.61a5.76,5.76,0,0,1-.62,2.73C357.07,268.9,356.63,269.19,356.12,269.13Zm1.57-11.47a1.35,1.35,0,0,0-.49-2.1,1.79,1.79,0,0,0-1.24-.26,1.55,1.55,0,0,0-1.07.8l-.59,1,1.7,1A1.09,1.09,0,0,0,357.69,257.66Z"/><path class="cls-6" d="M299.05,236.12a7.46,7.46,0,0,0-2.19-4.17,3.57,3.57,0,0,0-4.4-.36l1.1-1.26a7,7,0,0,0-3.14,4.42,15.11,15.11,0,0,0-.19,5.53,6.39,6.39,0,0,0,1.52,4,4.1,4.1,0,0,0,4.58.51,5.85,5.85,0,0,0,2.83-3.83A10.38,10.38,0,0,0,299.05,236.12Z"/><path class="cls-8" d="M293.09,248.19c-.25-.3.48-1.2,1-2.78a8,8,0,0,0,.34-2.78,7.75,7.75,0,0,0-1-3.23,11.28,11.28,0,0,1-1.47-4.15,6.91,6.91,0,0,1,.73-3.69,5.17,5.17,0,0,1,1.6-1.89c.48-.32.83-.37.94-.25.26.29-.46,1.21-.82,2.8a6.87,6.87,0,0,0-.07,2.73,13.45,13.45,0,0,0,1.41,3.28,10.38,10.38,0,0,1,.85,2.14,7.56,7.56,0,0,1-.83,5.81C294.59,248,293.27,248.45,293.09,248.19Z"/><g class="cls-9"><path class="cls-6" d="M369.62,216.33a13.1,13.1,0,0,0-18.37,0q-3.42,3.78-3.41,10.43t3.41,10.43a13.07,13.07,0,0,0,18.37,0q3.39-3.76,3.39-10.43T369.62,216.33Zm-5.91,16.11a11.18,11.18,0,0,1-1.48,5.15,8.15,8.15,0,0,1-2.34,2.66c-.68.48-1.17.59-1.29.44-.31-.35.87-1.62,1.68-4a10.88,10.88,0,0,0-.89-9.22,16.58,16.58,0,0,1-2.17-6,10.12,10.12,0,0,1,1-5.33,7.64,7.64,0,0,1,2.22-2.8c.67-.51,1.15-.62,1.28-.48.32.34-.85,1.63-1.49,4a10,10,0,0,0-.21,4.2,18.4,18.4,0,0,0,2.11,5,15.77,15.77,0,0,1,1.24,3.11A10.82,10.82,0,0,1,363.71,232.44Z"/></g><g class="cls-9"><path class="cls-6" d="M307.11,202.45a10.26,10.26,0,0,0-14.42,0c-1.78,2-2.67,4.69-2.67,8.18s.89,6.21,2.67,8.18a10.29,10.29,0,0,0,14.42,0q2.65-3,2.65-8.18C309.76,207.14,308.88,204.42,307.11,202.45Zm-4.64,12.63a8.8,8.8,0,0,1-1.16,4,6.44,6.44,0,0,1-1.84,2.09c-.53.38-.91.46-1,.34-.24-.27.68-1.27,1.32-3.14a9.2,9.2,0,0,0,.49-3.33,9,9,0,0,0-1.19-3.91,13,13,0,0,1-1.7-4.72,7.88,7.88,0,0,1,.77-4.18,6.08,6.08,0,0,1,1.74-2.2c.52-.4.9-.48,1-.37.25.27-.66,1.28-1.16,3.18a7.55,7.55,0,0,0-.17,3.29,14.63,14.63,0,0,0,1.65,3.93,12.2,12.2,0,0,1,1,2.44A8.68,8.68,0,0,1,302.47,215.08Z"/></g><g class="cls-9"><path class="cls-6" d="M315.14,264.11a9.15,9.15,0,0,0-12.86,0,12.34,12.34,0,0,0,0,14.6,9.15,9.15,0,0,0,12.86,0,12.43,12.43,0,0,0,0-14.6ZM311,275.39a7.73,7.73,0,0,1-1,3.6,5.94,5.94,0,0,1-1.64,1.87c-.48.33-.82.41-.91.3s.61-1.13,1.18-2.8a7.59,7.59,0,0,0-.62-6.46,11.56,11.56,0,0,1-1.52-4.21,7,7,0,0,1,.69-3.74,5.37,5.37,0,0,1,1.55-2c.47-.35.81-.43.9-.33s-.6,1.14-1.05,2.83a6.93,6.93,0,0,0-.14,2.94,12.77,12.77,0,0,0,1.47,3.51,11,11,0,0,1,.87,2.18A7.53,7.53,0,0,1,311,275.39Z"/></g><g class="cls-9"><path class="cls-6" d="M262,250.18a10.31,10.31,0,0,0-12.53,7.27q-.84,3.92,1.8,8.46t6.46,5.76a10.32,10.32,0,0,0,12.53-7.27c.54-2.61-.06-5.42-1.82-8.45S264.5,251,262,250.18Zm2.35,13.32a8.89,8.89,0,0,1,1,4.1,6.57,6.57,0,0,1-.55,2.74c-.27.6-.56.86-.7.81-.35-.12-.05-1.45-.44-3.4a8.59,8.59,0,0,0-4.27-5.94,13.22,13.22,0,0,1-3.86-3.24,8.07,8.07,0,0,1-1.44-4,6.3,6.3,0,0,1,.4-2.78c.26-.62.55-.89.69-.84.36.11.07,1.45.59,3.35a7.78,7.78,0,0,0,1.52,3,14.39,14.39,0,0,0,3.42,2.58,12.74,12.74,0,0,1,2.08,1.63A8.93,8.93,0,0,1,264.32,263.5Z"/></g><g class="cls-9"><path class="cls-6" d="M363.57,289.57a10.61,10.61,0,0,0-9.16-11.75q-4.11-.3-8.37,3c-2.84,2.22-4.49,4.67-5,7.38A10.6,10.6,0,0,0,350.24,300q4.1.28,8.35-3T363.57,289.57Zm-13.24,4.25a9,9,0,0,1-4,1.63,6.91,6.91,0,0,1-2.87-.17c-.65-.2-1-.46-.93-.61.07-.37,1.47-.26,3.4-.92a9.68,9.68,0,0,0,3-1.72,9.49,9.49,0,0,0,2.43-3.46,13.31,13.31,0,0,1,2.77-4.38,8.05,8.05,0,0,1,3.9-2,6.23,6.23,0,0,1,2.89,0c.66.17,1,.43.94.58-.06.38-1.46.27-3.33,1.07a8,8,0,0,0-2.79,2,15,15,0,0,0-2.15,3.84,13.06,13.06,0,0,1-1.37,2.35A9.11,9.11,0,0,1,350.33,293.82Z"/></g></g><g id="Coffee_Cup_1" data-name="Coffee Cup 1"><path class="cls-10" d="M225,164.92c-.26,11-42.84,19-93,17.84s-88.89-10.65-88.62-21.69c0-2,1.15-15.35,1.15-15.35,11.39-8,47.3-3.93,88.43-2.95,41.82,1,83.22-.2,93.59,8.52C226.55,151.29,225.07,163.08,225,164.92Z"/><ellipse class="cls-10" cx="135.26" cy="148.8" rx="20" ry="90.88" transform="translate(-16.72 280.48) rotate(-88.63)"/><path class="cls-11" d="M226.11,151s0-.34-.11-1c-.1-.31-.21-.7-.39-1.15a7.9,7.9,0,0,0-.91-1.41c-1.54-2.06-4.8-4.16-9.24-6.1-9-3.85-22.77-7.11-40-9.37a395.35,395.35,0,0,0-61-2.86,299.27,299.27,0,0,0-35.94,3.06,139.33,139.33,0,0,0-18.62,4,50.28,50.28,0,0,0-9,3.58,17.86,17.86,0,0,0-4,2.76,5.16,5.16,0,0,0-.21,8.29,17.9,17.9,0,0,0,3.85,2.95,51.26,51.26,0,0,0,8.84,4,139.73,139.73,0,0,0,18.41,4.93,299.68,299.68,0,0,0,35.77,4.77,394.08,394.08,0,0,0,61.08,0c17.34-1.43,31.3-4,40.41-7.45,4.53-1.73,7.89-3.67,9.53-5.65a8,8,0,0,0,1-1.37,12.07,12.07,0,0,0,.44-1.13c.1-.64.16-1,.16-1s0,.33-.11,1a10.78,10.78,0,0,1-.42,1.15,8.37,8.37,0,0,1-1,1.4c-1.64,2-5,4-9.53,5.77-9.13,3.49-23.11,6.15-40.46,7.63a392.49,392.49,0,0,1-61.15.06,299,299,0,0,1-35.83-4.75,139.61,139.61,0,0,1-18.48-4.94,52,52,0,0,1-8.94-4.06,18.35,18.35,0,0,1-4-3,5.68,5.68,0,0,1,.23-9,18.45,18.45,0,0,1,4.1-2.84,51.85,51.85,0,0,1,9.12-3.62,137.88,137.88,0,0,1,18.69-4,296.52,296.52,0,0,1,36-3,393.72,393.72,0,0,1,61.08,3c17.26,2.31,31.09,5.63,40,9.56,4.45,2,7.71,4.11,9.25,6.21a7.9,7.9,0,0,1,.89,1.45,10.69,10.69,0,0,1,.37,1.17C226.1,150.63,226.11,151,226.11,151Z"/><ellipse class="cls-10" cx="133.64" cy="146.57" rx="17.89" ry="81.29" transform="translate(-16.08 276.68) rotate(-88.63)"/><path class="cls-11" d="M214.9,148.51s0-.3-.1-.88c-.09-.28-.19-.63-.35-1a7.31,7.31,0,0,0-.81-1.26c-1.38-1.83-4.3-3.71-8.27-5.45-8-3.44-20.36-6.35-35.79-8.37A354.43,354.43,0,0,0,115,129a267.17,267.17,0,0,0-32.14,2.74,122.55,122.55,0,0,0-16.66,3.62,45.7,45.7,0,0,0-8.06,3.2A15.47,15.47,0,0,0,54.59,141a4.6,4.6,0,0,0-.19,7.38A15.77,15.77,0,0,0,57.84,151a45.64,45.64,0,0,0,7.9,3.59A123.88,123.88,0,0,0,82.21,159a268.61,268.61,0,0,0,32,4.27,354.84,354.84,0,0,0,54.64,0c15.5-1.28,28-3.6,36.14-6.66,4.05-1.54,7.05-3.28,8.52-5a7,7,0,0,0,.87-1.23c.18-.39.3-.73.4-1,.08-.57.14-.87.14-.87s0,.3-.09.89a9.28,9.28,0,0,1-.38,1,6.86,6.86,0,0,1-.86,1.25c-1.46,1.82-4.47,3.59-8.52,5.17-8.17,3.13-20.67,5.51-36.19,6.84a351.85,351.85,0,0,1-54.7.06,267.5,267.5,0,0,1-32-4.25,124.17,124.17,0,0,1-16.54-4.42,47.05,47.05,0,0,1-8-3.63A16.92,16.92,0,0,1,54,148.73a5.1,5.1,0,0,1,.21-8.11,16.1,16.1,0,0,1,3.67-2.55,46.21,46.21,0,0,1,8.16-3.24,125.77,125.77,0,0,1,16.73-3.63A266.21,266.21,0,0,1,115,128.49a349,349,0,0,1,54.63,2.67c15.44,2.07,27.81,5,35.82,8.55,4,1.77,6.9,3.68,8.27,5.57a6.79,6.79,0,0,1,.8,1.29,10.71,10.71,0,0,1,.33,1.05C214.9,148.21,214.9,148.51,214.9,148.51Z"/><path class="cls-10" d="M214.9,148.51l-5.39-39s-13.74-9.48-42-10.74-46.87,1.44-46.87,1.44S79,104.46,70.69,107.81c0,0-8.9-3.32-9.57-.49-.12.49-8.74,37.32-8.74,37.32"/><path class="cls-11" d="M52.38,144.64s0-.3.17-.87l.55-2.51c.51-2.22,1.24-5.44,2.18-9.55s2.11-9.15,3.45-14.93q1-4.34,2.14-9.23a2.27,2.27,0,0,1,.21-.64,1.39,1.39,0,0,1,.5-.52,3,3,0,0,1,1.3-.39,10.72,10.72,0,0,1,2.65.18,31.91,31.91,0,0,1,5.24,1.43h-.16l1.69-.56c.56-.18,1.14-.3,1.72-.46,1.16-.31,2.35-.53,3.55-.79,2.41-.48,4.88-.91,7.42-1.32,5.08-.81,10.39-1.55,15.9-2.26s11.22-1.37,17.09-2c1.47-.15,2.93-.31,4.42-.51s3-.33,4.49-.46q4.52-.4,9.14-.65c7.23-.39,14.32-.5,21.18-.4a191.46,191.46,0,0,1,19.85,1.1A103,103,0,0,1,194.85,103a74.39,74.39,0,0,1,7.84,2.82,46,46,0,0,1,6.93,3.55l.07,0v.09c1.63,12,3,21.77,3.86,28.54.44,3.36.79,6,1,7.79.1.87.19,1.55.25,2s.06.69.06.69-.05-.23-.12-.69-.17-1.14-.31-2c-.26-1.8-.64-4.41-1.13-7.77-1-6.77-2.33-16.51-4-28.51l.09.13a47,47,0,0,0-6.87-3.48,73.8,73.8,0,0,0-7.81-2.78A103.21,103.21,0,0,0,177,99.77a190.16,190.16,0,0,0-19.79-1.07c-6.86-.09-13.93,0-21.16.41q-4.61.24-9.12.65c-1.5.13-3,.29-4.47.46s-3,.35-4.43.5q-8.79.94-17.07,2c-5.51.69-10.83,1.42-15.9,2.22q-3.8.6-7.4,1.3c-1.2.25-2.38.47-3.53.78-.57.15-1.16.26-1.71.44l-1.65.54-.08,0-.07,0a31.31,31.31,0,0,0-5.16-1.43,10.46,10.46,0,0,0-2.54-.18,2.57,2.57,0,0,0-1.13.32,1.23,1.23,0,0,0-.55.92c-.77,3.25-1.49,6.33-2.18,9.22l-3.54,14.9c-1,4.1-1.76,7.32-2.29,9.53-.27,1.08-.48,1.91-.62,2.5S52.38,144.64,52.38,144.64Z"/><path class="cls-11" d="M204.05,116.07a9.9,9.9,0,0,1-1,1.16,17.84,17.84,0,0,1-3.57,2.57,57.75,57.75,0,0,1-15.21,5.4,72.48,72.48,0,0,1-11.05,1.62c-4,.26-8.3.36-12.81.31-9-.08-18.92-.74-29.31-1.36s-20.28-1.43-29.23-2.59a225.46,225.46,0,0,1-23.58-4.26c-1.66-.38-3.23-.79-4.72-1.18s-2.89-.76-4.18-1.22a12.42,12.42,0,0,1-5.81-3.76,7.44,7.44,0,0,1-1.67-4A4.25,4.25,0,0,1,62,107.2a9.25,9.25,0,0,0,0,1.52,7.49,7.49,0,0,0,1.73,3.91,12.32,12.32,0,0,0,5.75,3.62c1.27.43,2.67.8,4.16,1.17s3.06.77,4.72,1.15a237.64,237.64,0,0,0,23.56,4.13c8.94,1.14,18.82,1.92,29.21,2.55s20.27,1.3,29.27,1.4c4.51.07,8.79,0,12.78-.26a73.59,73.59,0,0,0,11-1.55,59.41,59.41,0,0,0,15.19-5.22,19.34,19.34,0,0,0,3.6-2.46C203.69,116.46,204,116.05,204.05,116.07Z"/><path class="cls-11" d="M150.55,105.23a4.9,4.9,0,0,1-.84,0l-2.39-.09c-2.09-.08-5.1-.18-8.82-.23a277.11,277.11,0,0,0-29.06,1.14,260.33,260.33,0,0,0-28.77,4.23,20,20,0,0,0-8,3.44A14.24,14.24,0,0,0,70.45,116a4.41,4.41,0,0,1,.45-.7,10,10,0,0,1,1.66-1.75,19.63,19.63,0,0,1,8-3.64,234.54,234.54,0,0,1,28.8-4.39,250.78,250.78,0,0,1,29.11-1c3.73.1,6.75.26,8.83.4l2.39.18A6.76,6.76,0,0,1,150.55,105.23Z"/><path class="cls-11" d="M202.63,114.77a5.87,5.87,0,0,0-1.84-2.22,11.7,11.7,0,0,0-3.07-1.5c-1.26-.44-2.76-.81-4.38-1.29a198.58,198.58,0,0,0-26-5.31A196.43,196.43,0,0,0,141,102.72c-1.69,0-3.23,0-4.58.06s-2.5,0-3.45.1l-2.19.07a4,4,0,0,1-.76,0,3.83,3.83,0,0,1,.76-.09l2.18-.18c.94-.08,2.11-.13,3.45-.18s2.89-.12,4.59-.14a179.15,179.15,0,0,1,52.48,7.06c1.62.5,3.11.89,4.38,1.36a11.36,11.36,0,0,1,3.09,1.62,5.3,5.3,0,0,1,1.44,1.67A2.41,2.41,0,0,1,202.63,114.77Z"/><path class="cls-11" d="M154.79,126.77l1.51-.5,4.37-1.42v.25l-3.26-.72c-1.19-.28-2.48-.64-3.87-1l-9.39-2.4c-6.94-1.73-15.11-3.65-23.88-5.53-7.56-1.63-14.73-3-21-4.19h0a94.43,94.43,0,0,0-18.76,2.88,14,14,0,0,0-4.82,2.22,3.2,3.2,0,0,0-1.09,1.51,2.6,2.6,0,0,1,.12-.48c.07-.15.18-.33.3-.53a4,4,0,0,1,.58-.61,13.46,13.46,0,0,1,4.83-2.38,89.46,89.46,0,0,1,18.81-3.07h.06c6.26,1.11,13.43,2.51,21,4.14,8.77,1.89,17,3.83,23.87,5.6,3.47.88,6.62,1.73,9.39,2.49,1.38.37,2.66.76,3.85,1l3.24.77.46.11-.45.14-4.41,1.3A9.28,9.28,0,0,1,154.79,126.77Z"/><path class="cls-11" d="M77.5,118.3a1.93,1.93,0,0,1,.34-.22c.24-.12.58-.35,1.06-.56A27.59,27.59,0,0,1,83.16,116,89.71,89.71,0,0,1,99,113.59h0c5.54,1,12,2.18,18.74,3.57,11.14,2.27,21.17,4.6,28.39,6.45,3.61.91,6.52,1.71,8.52,2.27l2.31.67a6,6,0,0,1,.79.27,4.52,4.52,0,0,1-.82-.17l-2.33-.57L146.06,124c-7.23-1.75-17.27-4-28.4-6.29-6.78-1.39-13.19-2.61-18.72-3.63h0a98,98,0,0,0-15.76,2.24A34.67,34.67,0,0,0,79,117.65C78,118.07,77.51,118.33,77.5,118.3Z"/><path class="cls-11" d="M98.7,113.63c-.14,0-.1-.64.08-1.36s.45-1.28.59-1.24.1.64-.08,1.36S98.84,113.67,98.7,113.63Z"/><polygon class="cls-11" points="137.51 113.25 137.9 106.18 157.16 111.11 182.06 114.59 156.74 118.66 137.51 113.25"/><path class="cls-10" d="M156.74,118.66a11.17,11.17,0,0,1-.27-3.89,11,11,0,0,1,.6-3.85,21.24,21.24,0,0,1-.08,3.87A21.3,21.3,0,0,1,156.74,118.66Z"/><polygon class="cls-12" points="222.94 200.88 60.72 244.18 134.17 437.65 249.16 409.44 222.94 200.88"/><g class="cls-9"><path d="M68.92,265.76,64.28,253l65.84-3.27,30.3-7.2,53.12-22.72,10.72-8.46.47,3.76s-14.34,15.2-45.76,30.15C163.21,252.77,110.16,271.16,68.92,265.76Z"/></g><ellipse class="cls-12" cx="141.7" cy="223.17" rx="89.89" ry="26.43" transform="translate(-49.99 41.13) rotate(-14.07)"/><path class="cls-8" d="M231.87,264.48C189,298,133.55,310,80.15,299.32l38.4,98.74a164.56,164.56,0,0,0,125.94-33.89Z"/><ellipse class="cls-12" cx="141.21" cy="221.23" rx="84.22" ry="19.95" transform="translate(-49.54 40.96) rotate(-14.07)"/><g class="cls-9"><ellipse cx="141.21" cy="221.23" rx="84.22" ry="19.95" transform="translate(-49.54 40.96) rotate(-14.07)"/></g><path class="cls-8" d="M135.8,234.55c-.58-2.46.81-5,2.7-6.7s4.22-2.76,6.33-4.16,4.1-3.29,4.62-5.77c.46-2.12-.23-4.29-.5-6.44s.09-4.68,1.92-5.84c2-1.29,4.91-.08,6.11,2s1.11,4.65.64,7a27.79,27.79,0,0,1-11.11,16.72"/><path class="cls-8" d="M174.26,201.47c-.63-2.26-3.41-3.84-5.49-2.75s-3.45,2.32-4,4.51.4,4.88,2.53,5.6a5,5,0,0,0,4.59-1.15A6.19,6.19,0,0,0,174.26,201.47Z"/><path class="cls-8" d="M39.93,195.31c-2.35-.95-6.25.27-6.68,2.77l0-1a5.41,5.41,0,0,0,2.4,6.53,5.05,5.05,0,0,0,6.57-2A4.74,4.74,0,0,0,39.93,195.31Z"/><path class="cls-8" d="M203.22,220c.81-2.18-54.51,5-75.87,7.73-10.18,1.3-20.53,2.68-30.58,4.95-12.26,2.77-22.74,6-33.15,13,0,0,4.32,5.46,25.23,3.75,15.46-1.26,26.39-1.2,60.31-9.63S202.49,222,203.22,220Z"/><path class="cls-8" d="M71.35,241.75a46.21,46.21,0,0,0-34.28-18.86c-2.89-.18-6.57-.63-7.34-3.42-.51-1.85.77-3.82,2.47-4.7a10.74,10.74,0,0,1,5.63-.78A44.64,44.64,0,0,1,66.5,227.13c1.75,1.79,3.48,3.8,5.86,4.56s5.61-.49,5.81-3c.12-1.39-.7-2.66-1.2-4s-.55-3.06.63-3.79c1.42-.89,3.18.46,4.21,1.77s2.41,2.89,4,2.49c2-.48,2.11-3.27,1.43-5.18s-1.7-4.11-.61-5.82,3.78-1.66,5.3-.34a7.69,7.69,0,0,1,2.2,5.44,48.11,48.11,0,0,0,.33,6,9.57,9.57,0,0,0,7.54,7.53,8.24,8.24,0,0,0,9-5.31c.91-2.87,0-6,.14-9s2.18-6.49,5.17-6.14c2.06.24,3.49,2.29,3.89,4.33s0,4.14,0,6.22.4,4.34,2,5.7,4.51,1.16,5.26-.78"/><path class="cls-10" d="M61.87,252.44l.42.18,1.21.57a33.22,33.22,0,0,0,4.88,1.59,80.79,80.79,0,0,0,18.77,1.85c16,0,38-2.66,61.78-8a222.17,222.17,0,0,0,32.81-10.11,180.27,180.27,0,0,0,25.31-12,78.92,78.92,0,0,0,15.22-11.13,41,41,0,0,0,3.44-3.81c.33-.46.59-.82.79-1.08l.28-.36a3.84,3.84,0,0,1-.24.39l-.75,1.11a35.39,35.39,0,0,1-3.38,3.89,76.48,76.48,0,0,1-15.17,11.31,178.2,178.2,0,0,1-25.32,12.17,219,219,0,0,1-32.87,10.16c-23.81,5.41-45.89,8-61.9,7.91a77.59,77.59,0,0,1-18.82-2,30.38,30.38,0,0,1-4.87-1.69l-1.19-.62A4.06,4.06,0,0,1,61.87,252.44Z"/><path class="cls-6" d="M142.05,334.46c1.3.64,1.9,1.39,1.81,2.25a7.3,7.3,0,0,1-1.32,3.05c-.78,1.19-1.39,1.75-1.83,1.71a.79.79,0,0,1-.4-.25,3.28,3.28,0,0,0-1.05-.56,5.93,5.93,0,0,0-1.45-.4,4.31,4.31,0,0,0-3.58,1.13,8.71,8.71,0,0,0-1,9.18,4.33,4.33,0,0,0,3.22,1.86,7.72,7.72,0,0,0,1.91,0,3,3,0,0,0,1.55-.51.42.42,0,0,1,.3,0c.15,0,.39.32.73.91a8.83,8.83,0,0,1,.88,2.28,6.29,6.29,0,0,1,.29,2.12c-.11.95-.92,1.63-2.44,2a14.61,14.61,0,0,1-5.29.27,10.33,10.33,0,0,1-7.56-4.27q-2.73-3.74-2-9.93t4.26-9.39a10.33,10.33,0,0,1,8.37-2.68A13.7,13.7,0,0,1,142.05,334.46Z"/><path class="cls-6" d="M148.3,357.78a11.89,11.89,0,0,1-.49-14,8,8,0,0,1,6.11-2.75,7.88,7.88,0,0,1,6.26,2.32,12,12,0,0,1,.49,14,8.82,8.82,0,0,1-12.37.43Zm5.85-10.65c-1.38.05-2,1.2-2,3.45s.81,3.36,2.19,3.31,2-1.2,2-3.45S155.53,347.08,154.15,347.13Z"/><path class="cls-6" d="M166.87,345.21l-1.77.31c-.36.07-.69-.7-1-2.31s-.25-2.44.11-2.5l1.78-.32-.14-.79c-.46-2.56-.23-4.43.67-5.59a6.52,6.52,0,0,1,4.25-2.27,12,12,0,0,1,5.29.15c.2,0,.35.28.42.72a6.53,6.53,0,0,1-.23,2.27,3.55,3.55,0,0,1-.75,1.88,4.89,4.89,0,0,0-2.67-.31c-.94.17-1.3.88-1.07,2.14l.13.76,3-.54c.43-.07.78.66,1.06,2.21s.17,2.58-.38,2.68l-2.32.41,2.27,12.82c.05.28-1,.62-3.13,1s-3.23.42-3.28.13Z"/><path class="cls-6" d="M180.73,342.3l-1.71.57c-.35.12-.78-.6-1.3-2.14s-.6-2.38-.25-2.5l1.7-.57-.25-.77q-1.24-3.69-.16-5.63a6.53,6.53,0,0,1,3.86-2.87,12,12,0,0,1,5.26-.63c.21,0,.38.22.53.65a6.71,6.71,0,0,1,.1,2.28,3.75,3.75,0,0,1-.46,2,4.88,4.88,0,0,0-2.69.09c-.9.3-1.15,1.06-.75,2.27l.25.73,2.89-1c.42-.14.88.54,1.38,2s.55,2.53,0,2.71l-2.23.75,4.14,12.34c.1.28-.89.77-2.94,1.45s-3.14.9-3.23.62Z"/><path class="cls-6" d="M210.36,342.35a11.61,11.61,0,0,1-4.49,4.15,8.39,8.39,0,0,1-6.56.92,9.3,9.3,0,0,1-5.6-4.71,10.21,10.21,0,0,1-1.44-7.34A7.8,7.8,0,0,1,196.2,330a8,8,0,0,1,5.86-1.22,6,6,0,0,1,4,3q3,5.16-2.95,8.57l-2.2,1.27a1.76,1.76,0,0,0,1.29,1,3.15,3.15,0,0,0,1.75-.53,10.51,10.51,0,0,0,3.65-3.46s.2.06.55.28a5.85,5.85,0,0,1,2.09,1.87A1.4,1.4,0,0,1,210.36,342.35Zm-9.29-6.92a1.35,1.35,0,0,0-2.08-.58,1.75,1.75,0,0,0-.82,1,1.52,1.52,0,0,0,.18,1.32l.57,1,1.72-1A1.09,1.09,0,0,0,201.07,335.43Z"/><path class="cls-6" d="M226.59,327.32a11.72,11.72,0,0,1-3.15,5.24,8.34,8.34,0,0,1-6,2.71,9.25,9.25,0,0,1-6.69-2.95,10.2,10.2,0,0,1-3.44-6.65,7.79,7.79,0,0,1,2.28-6.24,7.94,7.94,0,0,1,5.28-2.8,6,6,0,0,1,4.68,1.71q4.31,4.13-.44,9.06l-1.75,1.83a1.74,1.74,0,0,0,1.52.62,3.17,3.17,0,0,0,1.54-1,10.5,10.5,0,0,0,2.53-4.34s.2,0,.61.12a5.73,5.73,0,0,1,2.53,1.21A1.41,1.41,0,0,1,226.59,327.32Zm-10.85-4a1.35,1.35,0,0,0-2.16,0,1.75,1.75,0,0,0-.52,1.15,1.49,1.49,0,0,0,.54,1.21l.82.79L215.8,325A1.09,1.09,0,0,0,215.74,323.28Z"/><path class="cls-6" d="M158.66,348.27a7.56,7.56,0,0,0-2-4.25,3.6,3.6,0,0,0-4.4-.5l1.14-1.22a7,7,0,0,0-3.28,4.31,15.28,15.28,0,0,0-.38,5.52,6.4,6.4,0,0,0,1.39,4.06,4.09,4.09,0,0,0,4.56.67,5.86,5.86,0,0,0,3-3.73A10.5,10.5,0,0,0,158.66,348.27Z"/><path class="cls-8" d="M152.3,360.13c-.24-.31.52-1.18,1-2.75a8,8,0,0,0,.44-2.76,7.72,7.72,0,0,0-.91-3.27,11.08,11.08,0,0,1-1.32-4.19,6.79,6.79,0,0,1,.85-3.67,5,5,0,0,1,1.66-1.83c.49-.31.84-.35,1-.22.25.3-.5,1.19-.91,2.77a6.39,6.39,0,0,0-.16,2.72,12.55,12.55,0,0,0,1.3,3.33,10.39,10.39,0,0,1,.77,2.18,7.65,7.65,0,0,1,.17,2.26,7.74,7.74,0,0,1-1.19,3.51C153.8,360,152.47,360.4,152.3,360.13Z"/><g class="cls-9"><path class="cls-6" d="M232.41,348.25a9.19,9.19,0,0,0-12.87,0,12.4,12.4,0,0,0,0,14.61,9.19,9.19,0,0,0,12.87,0,12.44,12.44,0,0,0,0-14.61Zm-4.14,11.28a7.93,7.93,0,0,1-1,3.61A5.88,5.88,0,0,1,225.6,365c-.49.34-.82.41-.91.31s.61-1.14,1.18-2.81a8.23,8.23,0,0,0,.43-3,8,8,0,0,0-1.06-3.49,11.67,11.67,0,0,1-1.52-4.21,7.13,7.13,0,0,1,.69-3.74,5.52,5.52,0,0,1,1.55-1.95c.47-.36.81-.44.9-.34s-.59,1.14-1,2.84a6.91,6.91,0,0,0-.15,2.94,12.92,12.92,0,0,0,1.48,3.5,11,11,0,0,1,.87,2.18A8.23,8.23,0,0,1,228.27,359.53Z"/></g><g class="cls-9"><path class="cls-6" d="M158.9,311a9.17,9.17,0,0,0-11,6.67,12.36,12.36,0,0,0,7.57,12.49,9.18,9.18,0,0,0,11-6.67A12.45,12.45,0,0,0,158.9,311Zm2.31,11.79a7.86,7.86,0,0,1,1,3.62,5.77,5.77,0,0,1-.44,2.44c-.23.54-.48.78-.61.74-.31-.1-.07-1.29-.45-3a7.61,7.61,0,0,0-3.88-5.2,11.88,11.88,0,0,1-3.48-2.82A7.13,7.13,0,0,1,152,315a5.53,5.53,0,0,1,.31-2.48c.22-.55.47-.79.6-.75.31.09.08,1.29.58,3a6.72,6.72,0,0,0,1.39,2.59,12.85,12.85,0,0,0,3.08,2.24,11.83,11.83,0,0,1,1.88,1.41A8.33,8.33,0,0,1,161.21,322.74Z"/></g><g class="cls-9"><path class="cls-6" d="M204.65,301.27a9.15,9.15,0,0,0-12.86,0,12.34,12.34,0,0,0,0,14.6,9.15,9.15,0,0,0,12.86,0,12.43,12.43,0,0,0,0-14.6Zm-4.14,11.27a7.81,7.81,0,0,1-1,3.61,5.88,5.88,0,0,1-1.64,1.86c-.48.34-.82.41-.91.31s.61-1.14,1.18-2.81a7.55,7.55,0,0,0-.63-6.46,11.66,11.66,0,0,1-1.51-4.21,7,7,0,0,1,.69-3.73,5.37,5.37,0,0,1,1.55-2c.47-.36.81-.44.9-.33s-.6,1.14-1.05,2.83a6.93,6.93,0,0,0-.14,2.94,12.85,12.85,0,0,0,1.47,3.5,11.36,11.36,0,0,1,.87,2.19A7.43,7.43,0,0,1,200.51,312.54Z"/></g><g class="cls-9"><path class="cls-6" d="M194.85,362.46a6.4,6.4,0,0,0-9,0,8.61,8.61,0,0,0,0,10.22,6.42,6.42,0,0,0,9,0,8.7,8.7,0,0,0,0-10.22Zm-2.9,7.89a5.47,5.47,0,0,1-.72,2.53,4.12,4.12,0,0,1-1.15,1.3c-.34.24-.57.29-.63.21s.42-.79.82-2a5.77,5.77,0,0,0,.31-2.08,5.7,5.7,0,0,0-.75-2.44,8.08,8.08,0,0,1-1.06-3,5,5,0,0,1,.48-2.61,3.8,3.8,0,0,1,1.09-1.37c.33-.25.56-.31.63-.24s-.42.8-.73,2a4.75,4.75,0,0,0-.1,2,8.77,8.77,0,0,0,1,2.46,8.18,8.18,0,0,1,.61,1.52A5.57,5.57,0,0,1,192,370.35Z"/></g><g class="cls-9"><path class="cls-6" d="M118.84,323.82a5.73,5.73,0,0,0-4.49-1.85,5.8,5.8,0,0,0-4.51,1.85,8.65,8.65,0,0,0,0,10.22,5.79,5.79,0,0,0,4.51,1.84,5.72,5.72,0,0,0,4.49-1.84,8.7,8.7,0,0,0,0-10.22ZM116,331.71a5.64,5.64,0,0,1-.72,2.52,4.18,4.18,0,0,1-1.15,1.31c-.34.23-.58.29-.64.21s.43-.79.83-2a5.36,5.36,0,0,0-.44-4.52,8.08,8.08,0,0,1-1.06-2.95,4.87,4.87,0,0,1,.48-2.61,3.94,3.94,0,0,1,1.08-1.38c.33-.25.57-.3.63-.23s-.41.8-.73,2a4.91,4.91,0,0,0-.1,2.05,9.08,9.08,0,0,0,1,2.46,7.54,7.54,0,0,1,.61,1.52A5.22,5.22,0,0,1,116,331.71Z"/></g><g class="cls-9"><path class="cls-6" d="M144.83,367.05a10.62,10.62,0,0,0-12.48,8.15q-.65,4.07,2.31,8.59t6.94,5.57a9.6,9.6,0,0,0,7.92-1.52,9.49,9.49,0,0,0,4.55-6.63q.63-4.05-2.32-8.58T144.83,367.05ZM148,380.61a9.15,9.15,0,0,1,1.28,4.15,7,7,0,0,1-.41,2.85c-.26.63-.54.91-.69.87-.36-.1-.13-1.49-.63-3.47a9.56,9.56,0,0,0-1.46-3.16,9.45,9.45,0,0,0-3.24-2.71,13.54,13.54,0,0,1-4.14-3.12A8.34,8.34,0,0,1,137,372a6.23,6.23,0,0,1,.27-2.88c.23-.65.51-.94.66-.89.37.09.15,1.48.78,3.4a8.14,8.14,0,0,0,1.72,3,15.46,15.46,0,0,0,3.65,2.47,12.64,12.64,0,0,1,2.23,1.56A9.12,9.12,0,0,1,148,380.61Z"/></g><ellipse class="cls-12" cx="191.35" cy="422.72" rx="59.09" ry="23" transform="translate(-90.31 53.97) rotate(-13.02)"/></g></g></svg>